<?xml version="1.0" standalone="no"?>
<!DOCTYPE svg PUBLIC "-//W3C//DTD SVG 20010904//EN"
 "http://www.w3.org/TR/2001/REC-SVG-20010904/DTD/svg10.dtd">
<svg version="1.0" xmlns="http://www.w3.org/2000/svg"
 width="512.000000pt" height="512.000000pt" viewBox="0 0 512.000000 512.000000"
 preserveAspectRatio="xMidYMid meet">
<metadata>
Created by potrace 1.16, written by Peter Selinger 2001-2019
</metadata>
<g transform="translate(0.000000,512.000000) scale(0.100000,-0.100000)"
fill="#000000" stroke="none">
<path d="M3175 4675 c-696 -68 -1048 -94 -1620 -120 -424 -20 -664 -39 -694
-54 -45 -25 -61 -68 -61 -170 l0 -94 -36 -33 c-19 -19 -39 -34 -44 -34 -13 0
-40 -55 -40 -81 0 -12 -17 -38 -39 -59 -56 -55 -58 -77 -17 -229 39 -141 42
-166 25 -176 -7 -5 -3 -14 11 -27 13 -12 19 -26 15 -38 -3 -10 -1 -21 5 -25 5
-3 10 -19 10 -36 0 -16 5 -29 11 -29 7 0 8 -11 4 -29 -3 -17 -2 -32 5 -36 5
-3 7 -11 4 -17 -4 -5 3 -22 14 -38 13 -17 19 -36 15 -49 -3 -12 1 -28 8 -37 7
-9 12 -31 11 -49 -2 -18 3 -39 10 -46 7 -8 14 -34 14 -59 1 -28 11 -64 27 -95
44 -86 332 -1278 316 -1308 -5 -8 15 -107 46 -233 29 -120 83 -354 120 -519
37 -165 73 -324 81 -352 28 -101 105 -152 199 -134 22 5 177 49 345 99 168 49
413 120 545 157 276 77 557 160 730 215 137 43 342 108 665 209 124 38 317 93
430 121 113 28 213 54 223 56 12 4 17 0 17 -13 0 -16 -32 -27 -212 -72 -410
-103 -1013 -281 -978 -288 8 -2 175 37 370 86 390 98 851 203 859 196 2 -3 2
-7 0 -9 -2 -2 -134 -34 -294 -71 -528 -120 -715 -168 -703 -180 9 -9 661 126
768 160 25 7 81 21 125 30 169 35 186 50 136 120 -47 65 -42 149 10 160 15 4
42 23 60 42 26 30 30 42 25 71 -3 19 -17 52 -31 73 l-25 39 20 32 c28 47 26
79 -26 279 -107 422 -249 778 -531 1329 -299 584 -462 911 -562 1125 -56 121
-111 228 -123 238 -23 20 -53 20 -243 2z m232 -37 c27 -30 99 -175 214 -433
91 -205 368 -764 564 -1135 152 -290 211 -415 261 -555 90 -255 177 -551 203
-698 9 -48 8 -64 -4 -88 -20 -38 -32 -43 -171 -80 -66 -17 -209 -55 -319 -85
-110 -31 -459 -124 -775 -209 -316 -85 -676 -181 -800 -214 -123 -34 -231 -61
-238 -61 -9 0 -2 14 17 35 17 20 31 42 31 49 0 9 38 23 113 41 390 96 581 156
632 200 11 9 14 14 8 10 -11 -5 -165 -41 -685 -161 -170 -38 -183 -28 -258
208 l-48 148 42 11 c22 6 149 33 281 60 300 62 594 125 648 140 40 10 83 47
120 102 10 16 33 30 55 36 61 15 1024 220 1075 229 15 2 27 9 27 14 0 5 -8 7
-17 5 -10 -3 -40 -8 -68 -12 -154 -21 -1020 -202 -1057 -221 -15 -8 -39 -34
-53 -58 -14 -24 -38 -49 -53 -55 -15 -6 -243 -54 -507 -106 -264 -52 -487 -98
-497 -101 -10 -3 -18 -1 -18 5 0 16 -41 123 -46 119 -2 -2 5 -28 16 -56 24
-62 25 -78 6 -85 -11 -5 -22 19 -46 96 -35 113 -48 139 -230 447 -189 322
-254 443 -301 567 -23 62 -44 111 -46 110 -1 -2 13 -59 32 -127 34 -120 43
-180 28 -180 -21 1 -213 306 -213 338 0 7 -3 11 -7 9 -5 -3 -9 7 -9 21 -1 15
-3 34 -5 42 -3 10 3 15 16 15 14 0 38 -30 87 -109 83 -134 89 -128 10 9 -72
125 -272 554 -305 655 -47 144 -37 134 57 -55 101 -202 236 -458 249 -471 11
-11 -11 39 -103 236 -102 218 -176 387 -223 510 -82 214 -237 663 -237 685 0
54 19 57 640 90 590 32 673 37 1150 80 714 65 727 65 757 33z m-2469 -591 c22
-67 47 -156 57 -197 9 -41 31 -117 47 -168 16 -51 28 -95 25 -98 -13 -13 -228
659 -227 709 1 23 59 -124 98 -246z m-100 61 c28 -67 92 -262 92 -279 0 -8
-99 -43 -105 -38 -6 8 -82 255 -89 292 -6 33 -3 41 23 67 16 17 34 30 39 30 6
0 24 -33 40 -72z m-115 -221 l41 -117 -34 -35 c-19 -19 -37 -35 -40 -35 -8 0
-60 201 -60 234 0 31 28 78 43 73 5 -1 28 -56 50 -120z m173 -152 c-34 -14
-53 -17 -58 -10 -10 14 13 34 58 50 35 12 40 11 45 -3 4 -13 -6 -21 -45 -37z
m173 -55 c0 -17 -23 34 -33 71 -3 13 3 6 13 -16 11 -22 20 -47 20 -55z m-289
47 c0 -2 -16 -19 -37 -38 l-36 -34 28 38 c23 30 45 48 45 34z m177 -34 c5 -15
-68 -36 -81 -23 -6 6 3 15 25 24 37 16 51 16 56 -1z m-158 -15 c-2 -2 -22 -19
-44 -38 l-40 -35 39 42 c22 24 42 40 45 38 2 -3 2 -6 0 -7z m180 -47 c11 -7 3
-12 -30 -21 -24 -7 -47 -14 -51 -17 -5 -2 -8 3 -8 12 0 26 61 44 89 26z m-200
-38 c-18 -21 -37 -42 -41 -47 -5 -6 -8 -7 -8 -3 0 9 70 87 78 87 3 0 -10 -17
-29 -37z m221 -13 c0 -5 -16 -17 -36 -25 -42 -17 -54 -19 -54 -6 0 7 37 24 88
40 1 1 2 -3 2 -9z m-180 -4 c0 -2 -16 -23 -35 -46 -19 -23 -35 -38 -35 -33 0
5 14 25 31 46 28 34 39 43 39 33z m38 -34 c-1 -5 -23 -26 -48 -47 l-45 -39 45
47 c43 46 55 55 48 39z m162 -10 c0 -9 -101 -54 -108 -48 -4 5 87 55 101 56 4
0 7 -4 7 -8z m-200 -87 c-24 -25 -46 -45 -49 -45 -5 0 47 58 69 77 32 27 22
11 -20 -32z m220 27 c0 -8 -96 -52 -113 -52 -16 0 5 21 41 40 39 20 72 26 72
12z m-200 -77 c-44 -45 -50 -50 -50 -40 0 11 73 85 83 85 6 0 -9 -20 -33 -45z
m225 12 c0 -4 -28 -20 -62 -36 -46 -22 -63 -26 -66 -16 -7 16 80 66 108 62 11
-1 20 -5 20 -10z m-175 -10 c0 -2 -17 -19 -37 -38 l-38 -34 34 38 c33 34 41
42 41 34z m200 -40 c0 -2 -33 -20 -73 -40 -77 -38 -101 -57 -156 -122 -33 -39
-33 -39 -15 -6 23 41 124 127 179 152 37 17 65 24 65 16z m-180 -30 c0 -7 -14
-26 -31 -43 -17 -16 -40 -42 -50 -59 l-19 -30 0 28 c0 18 14 42 41 72 43 46
59 55 59 32z m195 -29 c2 -7 34 -96 70 -198 37 -102 84 -234 106 -295 38 -105
119 -264 159 -313 12 -15 35 -26 58 -29 37 -5 39 -7 86 -109 27 -58 47 -106
45 -107 -2 -2 -22 -9 -44 -16 -125 -42 -312 -150 -380 -221 -35 -36 -18 -40
23 -5 34 29 201 135 212 135 4 0 10 -15 12 -32 3 -18 35 -134 72 -258 36 -124
97 -333 136 -465 89 -304 152 -506 157 -501 7 7 -73 305 -122 451 -43 130
-117 387 -183 632 -25 95 -26 104 -10 119 13 13 148 54 180 54 10 0 65 -146
109 -290 21 -69 50 -147 64 -174 14 -27 23 -52 19 -55 -3 -3 -44 -26 -92 -51
-47 -25 -88 -51 -90 -58 -3 -10 0 -11 14 -3 44 24 178 81 182 77 10 -10 -12
-27 -74 -57 -63 -29 -66 -32 -60 -60 3 -16 42 -123 86 -237 l81 -208 64 -12
c79 -15 189 -16 180 -2 -3 6 -35 10 -71 10 -112 0 -122 9 -173 146 -24 65 -61
163 -82 217 -22 53 -39 100 -39 103 0 6 87 44 101 44 6 0 17 -17 25 -37 34
-81 134 -285 155 -314 24 -35 89 -68 131 -69 35 0 59 -35 65 -93 6 -53 18 -48
-237 -117 -324 -89 -441 -129 -477 -166 -43 -42 -44 -84 -4 -125 21 -21 39
-29 65 -29 39 0 56 15 27 25 -39 12 -71 46 -71 75 0 36 12 45 101 76 133 45
522 155 558 157 33 2 35 0 56 -53 11 -30 25 -55 30 -54 6 0 35 12 65 26 67 31
624 222 810 278 74 23 286 79 470 125 184 47 421 108 525 135 105 28 197 49
205 47 8 -1 -25 -13 -75 -25 -478 -121 -1336 -382 -1828 -558 -267 -95 -871
-283 -930 -290 -59 -6 -108 14 -139 56 -12 16 -41 127 -78 290 -32 146 -86
378 -119 517 -34 138 -61 255 -61 260 1 4 8 -3 16 -17 l15 -25 -6 25 c-3 14
-35 153 -71 310 -36 157 -110 461 -164 675 -123 488 -120 472 -81 509 17 16
33 28 35 25 2 -2 32 -86 65 -186 33 -100 79 -228 102 -285 23 -57 66 -175 95
-263 29 -88 53 -156 54 -152 1 20 -108 437 -175 667 -40 140 -75 266 -77 279
-2 21 5 29 51 53 60 31 70 33 76 16z m199 -374 c3 -8 2 -12 -4 -9 -6 3 -10 10
-10 16 0 14 7 11 14 -7z m589 -1021 c16 -32 22 -56 17 -73 -5 -21 -8 -16 -24
35 -9 33 -20 66 -23 73 -2 6 -2 12 1 12 3 0 16 -21 29 -47z m-13 -92 c11 -46
19 -85 16 -88 -5 -5 -41 112 -51 167 -11 62 12 10 35 -79z m118 -236 c4 3 -36
173 -54 232 -3 10 3 3 13 -15 11 -18 22 -30 25 -26 4 3 4 -4 1 -17 -4 -15 -2
-20 5 -15 15 9 52 -112 57 -189 l4 -60 -9 61 c-6 34 -19 88 -30 120 -20 60
-20 57 5 -56 16 -70 20 -186 5 -140 -4 14 -9 41 -10 60 -2 32 -3 33 -9 10 -7
-24 -8 -24 -16 10 -4 19 -20 77 -36 129 -16 51 -29 110 -28 130 0 25 12 -7 37
-101 20 -76 38 -135 40 -133z m2627 39 c21 -50 19 -73 -7 -84 -13 -6 -151 -44
-308 -85 -874 -232 -1094 -296 -1647 -481 -157 -53 -287 -93 -290 -91 -3 3 1
18 9 33 12 26 34 34 323 121 429 128 535 163 535 173 0 13 -235 -52 -647 -178
-106 -33 -193 -55 -193 -50 0 5 6 23 13 41 14 31 19 34 183 80 93 27 309 87
479 133 171 47 537 150 815 229 625 178 681 193 702 194 11 1 23 -13 33 -35z
m-2471 -46 c18 -44 53 -191 61 -256 8 -68 -14 -68 -32 -1 -9 36 -12 39 -12 16
-2 -50 -18 -19 -25 47 -4 35 -16 96 -26 136 -10 41 -17 77 -14 82 12 18 36 6
48 -24z m-47 -90 c-3 -8 -6 -5 -6 6 -1 11 2 17 5 13 3 -3 4 -12 1 -19z m10
-115 c-2 -16 -4 -5 -4 22 0 28 2 40 4 28 2 -13 2 -35 0 -50z m2421 15 c-2 -15
-13 -25 -33 -30 -16 -4 -159 -39 -316 -78 -268 -66 -362 -84 -299 -59 27 11
630 187 643 188 5 1 7 -9 5 -21z m-681 -184 c-3 -3 -12 -4 -19 -1 -8 3 -5 6 6
6 11 1 17 -2 13 -5z m-212 -44 c-11 -5 -27 -9 -35 -9 -9 0 -8 4 5 9 11 5 27 9
35 9 9 0 8 -4 -5 -9z m-70 -20 c-11 -5 -27 -9 -35 -9 -9 0 -8 4 5 9 11 5 27 9
35 9 9 0 8 -4 -5 -9z m-85 -25 c-19 -7 -42 -13 -50 -13 -8 0 1 6 20 13 19 7
42 13 50 13 8 0 -1 -6 -20 -13z m-140 -41 c-41 -13 -79 -23 -85 -23 -14 1 127
47 145 47 8 0 -19 -11 -60 -24z m-130 -39 c-19 -7 -42 -13 -50 -13 -8 0 1 6
20 13 19 7 42 13 50 13 8 0 -1 -6 -20 -13z m-115 -35 c-11 -5 -27 -9 -35 -9
-9 0 -8 4 5 9 11 5 27 9 35 9 9 0 8 -4 -5 -9z"/>
<path d="M3015 4479 c-251 -15 -661 -49 -1135 -94 -256 -24 -507 -47 -557 -51
-101 -7 -119 -17 -110 -61 10 -53 197 -499 277 -660 73 -149 83 -164 120 -183
44 -23 95 -25 215 -10 44 5 219 26 388 45 357 40 438 52 452 66 7 7 2 9 -15 5
-14 -3 -63 -8 -110 -11 -47 -3 -238 -22 -425 -41 -187 -19 -368 -37 -402 -41
-80 -8 -117 7 -148 61 -38 65 -146 326 -140 337 18 28 84 41 372 74 517 59
1117 135 1143 145 31 12 67 15 -740 -65 -633 -63 -679 -70 -771 -109 -12 -5
-21 7 -41 56 -14 35 -28 71 -31 80 -7 20 -4 20 248 44 165 15 659 67 1329 139
293 31 390 45 315 45 -33 0 -443 -36 -684 -60 -110 -11 -418 -40 -685 -65
-267 -25 -499 -49 -516 -53 l-30 -9 -39 100 c-35 90 -37 101 -23 111 14 10
582 78 1103 131 300 31 750 63 933 67 50 1 92 5 92 10 0 10 -192 8 -385 -3z"/>
<path d="M1075 4373 c8 -19 144 -384 244 -653 90 -242 111 -288 138 -310 34
-27 85 -34 146 -23 l52 10 -75 2 c-95 1 -131 21 -153 83 -8 23 -42 126 -75
228 -85 264 -253 680 -274 680 -6 0 -7 -8 -3 -17z"/>
<path d="M3076 3790 c-231 -27 -435 -51 -453 -55 -49 -9 -68 -63 -28 -79 13
-5 964 128 993 139 6 2 12 14 12 25 0 18 -6 20 -52 19 -29 -1 -242 -23 -472
-49z"/>
<path d="M1949 3360 c-395 -56 -392 -56 -414 -80 -25 -27 -16 -75 33 -189 56
-129 70 -137 21 -11 -51 130 -58 165 -33 178 18 9 185 32 233 32 29 0 179
-302 283 -570 52 -135 134 -314 238 -522 l159 -317 -57 -11 c-31 -6 -67 -13
-80 -16 -34 -7 -65 31 -101 127 -17 46 -45 120 -62 164 -32 86 -331 687 -338
680 -2 -3 49 -112 114 -242 65 -131 160 -341 211 -468 50 -127 103 -242 117
-257 15 -18 35 -28 52 -28 43 0 593 109 635 126 44 18 65 52 57 93 -15 74
-111 303 -321 763 -117 257 -265 560 -283 580 -24 27 -82 23 -464 -32z m438
-18 c20 -13 454 -945 564 -1211 45 -108 47 -124 18 -145 -28 -19 -307 -72
-318 -60 -4 5 -29 63 -56 129 -50 122 -413 857 -549 1109 -42 77 -73 142 -71
144 7 7 283 40 345 41 30 0 60 -3 67 -7z m-191 -567 c287 -570 420 -856 400
-867 -6 -3 -31 -9 -56 -12 l-45 -7 -29 68 c-16 37 -82 172 -147 298 -110 216
-189 392 -189 422 0 7 -4 13 -8 13 -5 0 -9 6 -9 13 -3 33 -80 212 -171 394
l-102 202 43 3 c23 2 43 3 43 3 1 0 122 -238 270 -530z"/>
<path d="M2275 2486 c8 -36 66 -178 72 -172 2 2 -15 48 -37 102 -22 55 -38 86
-35 70z"/>
<path d="M1801 2895 c0 -5 6 -21 14 -35 8 -14 14 -20 14 -15 0 6 -6 21 -14 35
-8 14 -14 21 -14 15z"/>
<path d="M1721 2485 c90 -178 154 -293 265 -476 87 -145 85 -142 96 -131 12
12 -1 38 -125 257 -90 158 -281 471 -311 510 -9 11 25 -61 75 -160z"/>
<path d="M4322 1959 c-201 -26 -420 -64 -607 -104 -205 -45 -749 -181 -775
-195 -18 -10 -50 -58 -50 -76 0 -4 8 0 19 10 11 10 176 56 413 115 446 112
673 162 998 221 123 23 227 43 229 46 9 9 -88 2 -227 -17z"/>
<path d="M2575 1600 c-88 -20 -167 -40 -176 -44 -20 -9 -39 -49 -39 -79 1 -20
3 -19 17 8 8 17 17 31 18 32 1 2 66 19 146 38 187 46 209 54 209 71 0 8 -3 14
-7 13 -5 -1 -80 -18 -168 -39z"/>
<path d="M1231 2254 c0 -11 3 -14 6 -6 3 7 2 16 -1 19 -3 4 -6 -2 -5 -13z"/>
<path d="M1191 1899 c-1 -26 55 -205 103 -329 25 -63 45 -108 46 -98 0 12 -81
254 -143 428 -5 13 -6 12 -6 -1z"/>
<path d="M1320 1425 c0 -5 5 -17 10 -25 5 -8 10 -10 10 -5 0 6 -5 17 -10 25
-5 8 -10 11 -10 5z"/>
<path d="M1346 1360 c3 -14 11 -32 16 -40 6 -10 7 -7 2 10 -3 14 -11 32 -16
40 -6 10 -7 7 -2 -10z"/>
</g>
</svg>