<svg xmlns="http://www.w3.org/2000/svg" xmlns:xlink="http://www.w3.org/1999/xlink" width="36px" height="36px" viewBox="0 0 36 36"><title>186D1C0D-E319-49B4-8665-381A99EE8F2B</title><g id="Desktop" stroke="none" stroke-width="1" fill="none" fill-rule="evenodd"><g id="Menu" transform="translate(-25.000000, -25.000000)"><g id="Dengun-Symbol" transform="translate(25.000000, 25.000000)"><polygon id="Bg" fill="#FFFFFF" points="0 36 36 36 36 0 0 0"></polygon><path d="M16.4140691,9.43599273 L16.4140691,11.2315418 L14.3684836,11.2315418 L14.3684836,24.7403782 L16.4140691,24.7403782 L16.4140691,26.5359273 L12.3222436,26.5359273 L12.3222436,9.43599273 L16.4140691,9.43599273 Z M19.0447789,10.5425738 C22.176648,10.5425738 24.5777171,12.4634029 24.5777171,15.678792 L24.5777171,15.678792 L24.5777171,20.188872 C24.5777171,23.5085302 21.9887935,25.4293593 19.0655935,25.4293593 L19.0655935,25.4293593 L18.2096444,25.4293593 L18.2096444,23.6127993 L18.9612589,23.6127993 C20.9447935,23.6127993 22.5315425,22.4227702 22.5315425,20.3140865 L22.5315425,20.3140865 L22.5315425,15.6162175 C22.5315425,13.653432 21.070008,12.3381884 18.8986189,12.3381884 L18.8986189,12.3381884 L18.2096444,12.3381884 L18.2096444,10.5425738 Z" id="Combined-Shape" fill="#151515"></path></g></g></g></svg>