<?xml version="1.0" standalone="no"?>
<!DOCTYPE svg PUBLIC "-//W3C//DTD SVG 20010904//EN"
 "http://www.w3.org/TR/2001/REC-SVG-20010904/DTD/svg10.dtd">
<svg version="1.0" xmlns="http://www.w3.org/2000/svg"
 width="512.000000pt" height="512.000000pt" viewBox="0 0 512.000000 512.000000"
 preserveAspectRatio="xMidYMid meet">
<metadata>
Created by potrace 1.16, written by Peter Selinger 2001-2019
</metadata>
<g transform="translate(0.000000,512.000000) scale(0.100000,-0.100000)"
fill="#000000" stroke="none">
<path d="M155 5110 c-3 -5 -40 -10 -81 -10 -59 0 -74 -3 -74 -15 0 -12 14 -15
68 -15 57 0 74 4 102 25 29 22 31 25 13 25 -12 0 -25 -4 -28 -10z"/>
<path d="M196 5085 c-38 -34 -43 -35 -118 -35 -45 0 -78 -4 -78 -10 0 -6 32
-10 76 -10 52 0 73 -3 68 -11 -4 -8 -1 -8 13 -1 19 11 93 87 93 97 0 12 -18 2
-54 -30z"/>
<path d="M410 4978 l0 -142 -62 -64 -63 -63 0 -288 c0 -275 1 -290 20 -311 23
-26 155 -113 161 -107 3 3 -31 41 -76 87 l-80 82 0 265 0 265 65 67 65 68 0
141 c0 120 -2 142 -15 142 -13 0 -15 -22 -15 -142z m-60 -873 c19 -19 32 -35
29 -35 -3 0 -20 16 -39 35 -19 19 -32 35 -29 35 3 0 20 -16 39 -35z"/>
<path d="M550 5082 c0 -30 -7 -45 -35 -72 l-35 -34 0 -247 c0 -211 -2 -248
-16 -259 -22 -19 -14 -64 13 -68 28 -4 48 30 33 57 -6 12 -10 112 -10 257 l0
237 40 43 c33 36 40 51 40 84 0 29 -4 40 -15 40 -11 0 -15 -11 -15 -38z"/>
<path d="M730 4904 c0 -202 -1 -217 -22 -253 -20 -36 -21 -39 -5 -70 9 -19 14
-37 11 -42 -3 -5 5 -8 18 -6 14 1 23 -3 23 -12 0 -24 -21 -23 -51 3 -28 23
-29 29 -32 121 -3 81 -1 99 14 116 19 21 15 33 -9 23 -23 -8 -28 -32 -29 -127
-1 -131 40 -196 109 -171 37 13 73 85 73 145 0 26 5 51 10 54 13 8 13 55 0 55
-5 0 -14 -9 -20 -20 -6 -11 -14 -20 -18 -20 -4 0 -6 94 -4 210 2 143 0 210 -7
210 -7 0 -12 -88 -13 -267 -3 -267 -3 -268 -25 -271 -14 -2 -26 4 -33 18 -10
18 -8 26 9 44 20 21 21 33 21 249 0 145 -4 227 -10 227 -6 0 -10 -79 -10 -216z"/>
<path d="M846 5104 c-12 -30 -6 -56 19 -86 16 -18 25 -42 25 -63 0 -45 22 -60
87 -60 75 0 83 13 83 132 0 86 -2 93 -20 93 -18 0 -20 -8 -22 -92 l-3 -93 -45
0 -45 0 -3 70 c-3 104 -7 115 -41 115 -17 0 -31 -6 -35 -16z"/>
<path d="M970 5089 c0 -17 5 -29 11 -27 6 2 10 7 10 11 -1 4 -1 16 -1 27 0 11
-4 20 -10 20 -5 0 -10 -14 -10 -31z"/>
<path d="M1080 5020 c0 -82 3 -100 15 -100 12 0 15 18 15 100 0 82 -3 100 -15
100 -12 0 -15 -18 -15 -100z"/>
<path d="M1220 5098 c-11 -12 -20 -32 -20 -45 0 -24 -15 -31 -23 -10 -3 9 -9
9 -23 1 -17 -10 -19 -24 -18 -143 l2 -131 -108 0 c-60 0 -115 -3 -124 -6 -14
-5 -16 -33 -16 -203 l0 -196 -54 -57 -54 -58 -61 0 c-61 0 -88 -13 -48 -24 12
-3 42 -6 65 -6 40 0 49 5 108 61 l64 62 2 196 3 196 104 3 c63 2 108 -1 115
-8 23 -23 36 -10 36 39 0 27 3 56 6 65 9 25 24 19 24 -10 0 -14 4 -23 10 -19
6 4 10 60 10 134 0 173 -10 165 206 166 125 0 164 -3 164 -12 0 -10 -36 -13
-149 -13 l-149 0 -31 -29 c-28 -26 -31 -35 -31 -90 0 -34 4 -61 10 -61 6 0 10
24 10 53 0 44 4 58 25 77 24 22 35 24 158 27 165 4 177 6 177 38 l0 25 -185 0
c-177 0 -185 -1 -205 -22z"/>
<path d="M1630 5095 c0 -28 -39 -59 -63 -50 -20 8 -34 -15 -16 -26 24 -15 40
-10 75 25 35 35 45 76 19 76 -9 0 -15 -9 -15 -25z"/>
<path d="M1800 5057 c0 -92 -8 -97 -149 -97 -111 0 -113 0 -142 -29 l-29 -29
0 -305 0 -305 -40 -36 -40 -36 -95 0 c-57 0 -95 -4 -95 -10 0 -6 40 -10 101
-10 l100 0 47 44 47 45 2 241 2 242 46 54 47 54 140 0 140 0 29 30 c39 39 27
62 -12 24 -26 -25 -37 -28 -102 -29 -231 -5 -214 -1 -259 -65 -17 -24 -17 -24
-1 12 20 44 9 63 -17 30 -11 -13 -21 -18 -25 -12 -3 6 7 24 24 40 29 30 30 30
144 30 154 0 165 10 159 143 -3 63 -22 41 -22 -26z"/>
<path d="M1928 5073 c-46 -48 -90 -129 -65 -121 6 3 19 20 29 39 25 53 91 111
135 119 l38 8 -45 1 c-42 1 -50 -3 -92 -46z"/>
<path d="M2036 5040 c-42 -44 -76 -85 -76 -91 0 -14 62 36 135 110 48 49 55
61 39 61 -14 0 -50 -30 -98 -80z"/>
<path d="M2497 5113 c-12 -11 -7 -33 7 -33 7 0 16 9 19 20 5 19 -12 28 -26 13z"/>
<path d="M2540 5106 c0 -23 20 -29 38 -13 9 8 26 17 37 20 11 2 -1 5 -27 6
-36 1 -48 -3 -48 -13z"/>
<path d="M2737 5114 c-17 -17 -6 -71 18 -94 22 -21 25 -32 25 -91 0 -42 5 -70
13 -77 7 -6 37 -12 67 -14 l55 -3 2 -125 2 -125 -50 -43 c-48 -41 -53 -43
-107 -40 l-56 3 3 98 3 98 -45 45 c-38 37 -49 44 -71 38 -37 -9 -56 11 -56 58
0 55 15 78 50 78 37 0 70 31 70 65 0 14 -9 34 -20 45 -18 18 -33 20 -171 20
-84 0 -159 -5 -170 -10 -18 -10 -19 -23 -19 -184 l0 -173 -40 -27 c-39 -26
-43 -26 -209 -26 -164 0 -170 -1 -185 -22 -14 -19 -16 -62 -16 -273 1 -278 -6
-250 78 -329 61 -58 65 -35 5 27 l-51 52 -4 252 c-2 138 -1 254 2 257 3 2 83
8 177 11 168 6 171 6 178 -15 9 -28 48 -52 71 -44 55 20 69 64 35 112 -18 24
-19 34 -10 97 6 39 13 102 16 142 l5 72 71 3 c65 3 72 5 75 24 3 22 35 34 92
34 34 0 64 -32 56 -58 -8 -24 -35 -37 -50 -22 -7 7 -5 10 7 10 24 0 23 50 0
51 -51 4 -61 -5 -38 -31 18 -20 18 -21 -3 -43 -25 -27 -38 -110 -23 -149 9
-25 16 -28 55 -28 33 0 52 -7 75 -26 31 -26 31 -26 31 -129 l0 -103 -77 -72
c-106 -99 -113 -111 -113 -195 l0 -70 -130 -128 c-72 -71 -128 -133 -124 -139
6 -10 248 219 271 257 7 11 12 52 13 90 l0 70 83 83 82 82 78 0 78 0 49 46 50
47 0 124 c0 79 4 130 12 143 19 30 -14 60 -67 60 -40 0 -43 2 -49 31 -10 50
-7 76 9 89 9 8 15 30 15 56 0 32 -4 44 -15 44 -11 0 -15 -11 -15 -40 0 -27 -4
-40 -14 -40 -9 0 -13 12 -12 38 1 34 -1 37 -29 40 -17 2 -34 0 -38 -4z"/>
<path d="M2936 5104 c-4 -9 -4 -19 -1 -22 6 -6 35 18 35 29 0 16 -28 10 -34
-7z"/>
<path d="M3190 4956 c0 -99 -4 -167 -10 -171 -19 -12 -10 -52 20 -80 28 -27
30 -33 30 -108 l0 -80 -96 -99 -95 -98 3 -51 c2 -43 8 -55 30 -72 40 -29 58
-17 179 116 l104 116 48 0 c26 1 47 5 47 10 0 11 -80 20 -97 12 -7 -4 -58 -56
-115 -116 -127 -137 -129 -138 -156 -119 -17 11 -22 25 -22 57 0 41 5 47 105
145 l105 103 0 74 c0 64 -3 77 -26 104 l-26 31 30 0 c54 0 53 57 -1 62 l-32 3
-3 163 c-1 97 -6 162 -12 162 -6 0 -10 -64 -10 -164z"/>
<path d="M3260 5020 c0 -165 29 -200 165 -200 l75 0 0 -195 c0 -123 4 -195 10
-195 6 0 10 72 10 196 l0 195 48 -3 47 -3 1 -199 c1 -179 3 -200 19 -212 39
-29 71 21 43 66 -10 15 -10 22 0 32 21 21 12 378 -9 378 -5 0 -9 -86 -9 -191
0 -124 -3 -188 -10 -184 -6 4 -10 69 -10 164 0 109 -4 161 -12 169 -8 8 -57
12 -154 12 -191 0 -189 -2 -189 151 0 81 -3 113 -12 116 -10 4 -13 -20 -13
-97z"/>
<path d="M3320 5022 c0 -84 3 -101 19 -116 14 -13 21 -14 26 -5 5 7 1 16 -9
21 -13 7 -16 26 -16 103 0 57 -4 95 -10 95 -6 0 -10 -39 -10 -98z"/>
<path d="M3480 5053 c0 -40 0 -75 0 -78 0 -3 3 -5 8 -5 9 0 9 128 0 143 -4 7
-8 -21 -8 -60z"/>
<path d="M3530 5062 c0 -32 5 -63 12 -70 15 -15 218 -17 218 -2 0 5 -45 11
-102 12 l-103 3 -3 58 c-4 75 -22 74 -22 -1z"/>
<path d="M3683 5090 c-11 -28 -15 -30 -63 -30 -31 0 -49 -4 -45 -10 3 -5 28
-10 55 -10 55 0 80 18 80 56 0 33 -13 30 -27 -6z"/>
<path d="M3780 4960 c0 -100 4 -160 10 -160 6 0 10 60 10 160 0 100 -4 160
-10 160 -6 0 -10 -60 -10 -160z"/>
<path d="M3837 5003 c-3 -65 -8 -132 -12 -149 -6 -26 -3 -33 19 -48 21 -13 26
-24 26 -59 1 -37 8 -51 63 -115 l63 -73 -33 -35 c-32 -35 -33 -37 -33 -128 0
-85 2 -94 24 -115 14 -13 30 -20 36 -16 7 4 2 14 -15 27 -23 18 -25 26 -25
103 0 75 3 87 26 114 l26 31 125 0 c124 0 125 0 154 -29 42 -42 41 -101 -1
-133 -16 -12 -30 -26 -30 -31 0 -5 -38 -50 -85 -100 -47 -51 -85 -100 -85
-109 0 -20 48 -60 62 -52 6 4 -3 17 -18 29 l-28 22 78 84 c43 46 89 101 103
122 13 22 26 37 29 34 10 -10 -20 -64 -62 -109 -49 -52 -53 -67 -26 -91 21
-19 42 -23 24 -5 -20 20 -14 43 26 89 65 75 72 89 72 151 0 69 -11 101 -46
133 -25 24 -34 25 -140 25 -62 0 -123 5 -136 11 -36 17 -138 147 -138 175 0
14 -10 38 -22 55 -20 27 -21 32 -8 62 7 18 13 53 12 78 -2 43 2 50 54 108 31
33 50 61 43 61 -7 0 -32 -21 -56 -46 l-43 -47 0 47 c0 25 -4 46 -9 46 -6 0
-12 -53 -14 -117z"/>
<path d="M4041 5078 c-16 -24 -50 -63 -76 -88 -61 -59 -75 -88 -75 -156 0 -53
3 -60 43 -104 23 -26 56 -64 72 -83 l30 -36 120 -3 120 -2 -3 33 c-4 43 21 38
26 -5 2 -15 19 -45 38 -66 50 -56 64 -98 64 -198 l0 -88 -67 -61 c-41 -37 -83
-66 -105 -72 -41 -11 -46 -20 -23 -39 13 -11 20 -11 40 0 17 9 48 11 105 7 82
-5 110 4 110 37 0 19 69 81 90 81 25 0 29 19 6 23 -12 3 -41 -18 -80 -55 -60
-58 -62 -59 -123 -62 -35 -2 -63 0 -63 4 0 4 53 58 118 120 64 62 114 116 109
121 -4 4 -28 -12 -52 -36 l-45 -44 0 76 c0 55 4 79 15 88 35 29 3 90 -37 69
-12 -7 -18 -4 -23 9 -3 11 -16 29 -30 42 -20 18 -22 26 -14 48 16 43 6 52 -60
52 -51 0 -62 -3 -78 -24 -14 -19 -31 -26 -79 -31 l-62 -7 -28 38 c-16 20 -46
56 -66 79 -35 39 -38 47 -38 103 l0 62 85 92 c79 86 99 118 75 118 -5 0 -22
-19 -39 -42z m199 -423 c0 -8 -7 -15 -15 -15 -8 0 -15 7 -15 15 0 8 7 15 15
15 8 0 15 -7 15 -15z"/>
<path d="M4130 5090 c0 -20 11 -40 33 -62 17 -18 40 -46 50 -61 17 -26 24 -28
62 -25 34 2 41 0 33 -9 -7 -9 -46 -13 -127 -13 l-116 0 3 45 c3 28 0 45 -7 45
-6 0 -11 -4 -11 -10 0 -5 -10 -10 -22 -11 -13 0 -17 -3 -10 -6 10 -4 10 -8 0
-20 -11 -14 -10 -15 10 -8 20 6 23 4 20 -12 -2 -14 -14 -19 -47 -21 l-43 -3 4
-60 c4 -51 9 -64 38 -94 l34 -35 196 0 197 0 36 35 37 36 0 129 c0 70 3 137 6
147 5 16 4 16 -10 -1 -13 -16 -16 -46 -16 -144 l0 -124 -31 -29 c-25 -23 -40
-29 -75 -29 l-44 0 0 41 c0 32 7 49 30 76 27 30 30 41 30 97 0 49 -5 69 -21
90 -18 23 -27 26 -85 26 -57 0 -64 2 -64 20 0 11 -7 20 -15 20 -18 0 -20 -31
-3 -48 7 -7 38 -12 70 -12 77 0 98 -20 98 -93 0 -44 -5 -58 -30 -87 -23 -28
-29 -45 -30 -82 l0 -48 -134 0 -134 0 -26 31 c-19 23 -26 42 -26 74 l0 43 157
1 c104 1 162 6 171 13 16 14 11 80 -8 103 -14 17 -53 20 -80 5 -15 -8 -23 -4
-44 21 -14 17 -26 41 -26 55 0 15 -6 24 -15 24 -10 0 -15 -10 -15 -30z"/>
<path d="M4290 5110 c36 -4 69 -3 75 2 5 4 -25 7 -65 6 l-75 -1 65 -7z"/>
<path d="M4470 5104 c0 -8 5 -12 10 -9 6 3 10 10 10 16 0 5 -4 9 -10 9 -5 0
-10 -7 -10 -16z"/>
<path d="M4520 4767 l0 -353 41 -39 c23 -22 47 -53 54 -69 12 -29 13 -29 20
-7 6 19 -2 32 -41 72 -43 43 -49 55 -49 92 0 23 -2 180 -3 350 -1 196 -6 307
-12 307 -6 0 -10 -124 -10 -353z"/>
<path d="M4570 4785 l0 -336 39 -41 39 -42 153 2 c166 3 209 -2 209 -24 0 -12
-30 -14 -175 -14 -110 0 -175 -4 -175 -10 0 -15 433 -13 448 2 16 16 16 80 0
96 -19 19 -73 14 -93 -8 -16 -18 -31 -20 -158 -20 l-140 0 -39 42 -38 41 0
324 c0 209 -4 323 -10 323 -6 0 -10 -116 -10 -328 l0 -327 31 -38 c44 -54 25
-61 -22 -8 l-39 44 0 328 c0 213 -4 329 -10 329 -6 0 -10 -118 -10 -335z"/>
<path d="M4860 5101 c22 -43 5 -58 -67 -63 -57 -4 -69 -8 -89 -32 -24 -27 -24
-29 -24 -269 l0 -243 36 -37 36 -37 109 0 c66 0 109 4 109 10 0 6 -40 10 -101
10 l-101 0 -34 34 -34 34 0 225 c0 212 1 226 21 251 17 22 28 26 73 26 70 0
98 20 94 68 -2 26 -8 38 -21 40 -16 3 -17 1 -7 -17z"/>
<path d="M4930 5101 c14 -28 12 -63 -6 -89 -13 -18 -25 -22 -73 -22 -44 0 -65
-5 -85 -21 l-26 -20 0 -203 c0 -265 -9 -256 218 -248 119 4 85 22 -41 22 -162
0 -157 -7 -157 227 0 214 0 213 91 213 50 0 64 4 84 24 13 13 27 36 31 50 8
32 -13 86 -33 86 -10 0 -11 -4 -3 -19z"/>
<path d="M5077 5104 c18 -10 36 -14 40 -11 10 10 0 16 -38 22 l-34 6 32 -17z"/>
<path d="M1691 5044 c-12 -12 -21 -29 -19 -36 5 -14 58 33 58 52 0 15 -12 10
-39 -16z"/>
<path d="M5105 5050 c3 -5 8 -10 11 -10 2 0 4 5 4 10 0 6 -5 10 -11 10 -5 0
-7 -4 -4 -10z"/>
<path d="M2960 5040 c0 -5 16 -10 35 -10 19 0 35 5 35 10 0 6 -16 10 -35 10
-19 0 -35 -4 -35 -10z"/>
<path d="M603 5003 l-23 -15 0 -344 c0 -320 -1 -344 -17 -345 -77 -6 -129 4
-155 29 l-28 26 0 155 0 156 31 33 c44 47 31 63 -17 20 l-39 -36 -3 -154 c-3
-130 -1 -158 14 -185 18 -35 143 -127 196 -145 18 -6 49 -28 69 -49 l37 -39
152 0 153 0 117 115 116 115 69 0 c57 0 73 -4 92 -22 13 -12 26 -18 30 -14 5
4 -5 19 -20 32 -25 21 -38 24 -108 24 l-80 0 -114 -110 -113 -110 -149 0 -148
0 -27 34 c-16 20 -39 36 -58 39 -17 4 -52 19 -78 34 l-47 28 70 5 70 5 2 340
3 340 32 28 c27 22 29 27 13 26 -11 0 -30 -7 -42 -16z"/>
<path d="M4418 4948 c-4 -63 4 -91 21 -72 10 11 2 134 -9 134 -5 0 -10 -28
-12 -62z"/>
<path d="M83 4993 c-98 -4 -112 -23 -18 -23 l65 0 0 -53 c0 -80 35 -116 126
-132 74 -12 71 32 -5 90 -45 35 -48 39 -38 65 14 36 3 61 -25 58 -13 -1 -60
-4 -105 -5z"/>
<path d="M2500 4970 c0 -15 5 -20 18 -18 9 2 17 10 17 18 0 8 -8 16 -17 18
-13 2 -18 -3 -18 -18z"/>
<path d="M5047 4983 c-34 -5 -41 -21 -33 -68 5 -26 12 -35 26 -35 24 0 27 25
4 34 -9 3 -14 15 -12 28 2 18 10 23 33 24 17 0 35 -6 40 -14 8 -10 11 -7 13
12 2 27 -4 29 -71 19z"/>
<path d="M536 4954 c-3 -9 -6 -141 -6 -295 l0 -279 -25 -16 c-23 -15 -27 -15
-50 0 -25 16 -25 18 -25 166 0 93 -4 150 -10 150 -6 0 -10 -58 -10 -155 0
-146 1 -155 22 -175 29 -27 69 -25 102 5 l26 24 0 296 c0 268 -5 328 -24 279z"/>
<path d="M2042 4948 c-31 -31 0 -98 46 -98 22 0 52 34 52 61 0 38 -70 65 -98
37z"/>
<path d="M1310 4940 c0 -5 5 -10 10 -10 6 0 10 5 10 10 0 6 -4 10 -10 10 -5 0
-10 -4 -10 -10z"/>
<path d="M3126 4943 c-12 -12 -6 -33 9 -33 8 0 15 6 15 14 0 17 -14 28 -24 19z"/>
<path d="M2977 4858 c5 -60 10 -78 32 -101 23 -25 26 -37 26 -99 l0 -70 -35
-12 c-45 -14 -61 -55 -39 -94 19 -35 75 -42 109 -14 23 19 24 23 21 158 -2
129 -4 142 -27 175 -13 19 -24 44 -24 56 0 25 -36 73 -55 73 -11 0 -13 -15 -8
-72z"/>
<path d="M1 4904 c0 -11 3 -14 6 -6 3 7 2 16 -1 19 -3 4 -6 -2 -5 -13z"/>
<path d="M3478 4912 c-32 -2 -58 -7 -58 -11 0 -19 171 -23 177 -5 5 14 -41 20
-119 16z"/>
<path d="M4803 4912 c-17 -11 -23 -232 -5 -232 9 0 12 28 12 105 l0 105 30 0
c35 0 40 15 8 24 -29 7 -31 7 -45 -2z"/>
<path d="M1319 4833 c0 -43 -1 -93 -2 -111 -1 -17 1 -32 6 -32 4 0 7 50 7 110
0 61 -2 110 -5 110 -3 0 -5 -35 -6 -77z"/>
<path d="M1961 4903 c0 -7 -10 -22 -21 -33 -18 -18 -33 -20 -176 -20 l-157 0
-32 -34 c-30 -32 -33 -42 -40 -120 -4 -47 -5 -160 -3 -251 l3 -166 -46 -42
c-25 -23 -65 -59 -87 -80 -23 -20 -42 -46 -42 -57 0 -10 -9 -35 -21 -54 -16
-27 -28 -36 -48 -36 -25 0 -71 -35 -71 -53 0 -12 27 -7 39 7 23 28 57 25 89
-8 17 -17 57 -59 91 -94 33 -34 71 -66 85 -71 13 -5 82 -7 154 -4 100 5 135 3
147 -7 20 -16 33 -4 19 18 -10 14 -35 18 -172 22 l-162 5 -57 57 -57 57 28 26
c47 43 78 35 150 -40 61 -64 64 -65 114 -65 40 0 52 4 52 15 0 11 -12 15 -51
15 -49 0 -53 2 -108 60 -51 53 -62 60 -97 60 -32 0 -43 5 -58 29 -13 19 -25
27 -35 23 -9 -3 26 31 77 77 50 46 92 90 92 99 0 13 -125 -97 -167 -147 -11
-13 -13 -13 -13 0 0 8 41 54 90 101 l90 87 0 60 c0 34 4 61 10 61 5 0 11 61
13 148 l3 147 2 -152 c1 -94 6 -153 12 -153 6 0 10 64 10 171 l0 170 44 47 45
47 114 3 c105 3 117 6 137 27 12 13 20 31 17 42 -3 10 -5 12 -6 6z m-286 -82
c3 -5 -3 -12 -14 -16 -33 -10 -71 -53 -71 -80 0 -16 -6 -25 -15 -25 -27 0 -18
56 16 95 30 34 71 47 84 26z"/>
<path d="M66 4876 c-8 -14 -28 -27 -43 -29 -16 -2 -2 -5 30 -6 44 -1 56 2 50
12 -4 6 -6 20 -5 30 5 25 -13 21 -32 -7z"/>
<path d="M336 4883 c-11 -11 -6 -23 9 -23 8 0 15 4 15 9 0 13 -16 22 -24 14z"/>
<path d="M3123 4863 c-20 -7 -15 -23 7 -23 11 0 20 4 20 9 0 13 -12 19 -27 14z"/>
<path d="M4855 4841 c-3 -5 -2 -12 2 -14 14 -9 263 5 263 14 0 12 -257 11
-265 0z"/>
<path d="M4402 4824 c4 -21 22 -23 26 -1 2 10 -3 17 -13 17 -10 0 -15 -6 -13
-16z"/>
<path d="M0 4755 l0 -55 34 0 c26 0 35 5 39 22 6 23 -20 60 -55 79 -16 9 -18
4 -18 -46z m40 -15 c0 -11 -4 -20 -10 -20 -5 0 -10 9 -10 20 0 11 5 20 10 20
6 0 10 -9 10 -20z"/>
<path d="M2135 4780 l-31 -30 -159 -6 c-163 -7 -195 -15 -195 -51 0 -19 24
-16 45 7 16 18 31 20 153 20 127 0 138 2 178 25 46 27 76 65 52 65 -8 0 -27
-14 -43 -30z"/>
<path d="M2328 4795 c-9 -10 7 -61 18 -55 10 6 7 41 -4 52 -5 5 -11 6 -14 3z"/>
<path d="M1200 4730 c0 -27 5 -50 10 -50 6 0 10 23 10 50 0 28 -4 50 -10 50
-5 0 -10 -22 -10 -50z"/>
<path d="M3820 4654 c0 -81 -4 -123 -10 -119 -6 4 -10 55 -10 121 0 87 -3 115
-12 112 -19 -7 -26 -44 -27 -143 -1 -89 -1 -91 30 -118 27 -23 31 -32 25 -60
-4 -19 -26 -51 -54 -80 -41 -42 -51 -47 -77 -42 -16 3 -42 17 -57 32 -27 26
-28 26 -47 8 -12 -10 -29 -15 -41 -12 -24 6 -27 -8 -4 -17 9 -4 26 0 38 8 20
12 25 11 54 -15 53 -47 91 -41 158 25 l54 55 0 185 c0 117 -4 186 -10 186 -6
0 -10 -49 -10 -126z"/>
<path d="M4872 4768 c-7 -7 -12 -40 -12 -76 0 -55 -3 -65 -20 -69 -37 -10 -20
-23 29 -23 59 0 81 18 81 66 l0 34 85 0 c72 0 85 3 85 16 0 13 -7 15 -31 10
-17 -3 -60 -6 -95 -6 l-64 0 0 -38 c0 -36 -14 -62 -32 -62 -4 0 -8 29 -8 64 0
49 4 65 16 70 9 3 60 6 115 6 59 0 99 4 99 10 0 15 -233 13 -248 -2z"/>
<path d="M2203 4730 l-42 -40 -176 0 c-110 0 -175 -4 -175 -10 0 -5 -9 -10
-20 -10 -11 0 -34 -13 -52 -29 l-33 -29 -3 -151 c-3 -133 -2 -151 12 -151 14
0 16 19 16 141 0 77 4 149 10 159 5 10 26 27 45 39 33 19 51 21 217 21 l181 0
33 36 c19 19 34 42 34 50 0 19 1 19 -47 -26z"/>
<path d="M166 4734 c-9 -8 -16 -21 -16 -28 0 -21 27 -38 50 -31 35 11 23 75
-15 75 -2 0 -11 -7 -19 -16z"/>
<path d="M1256 4721 c-4 -7 -5 -15 -2 -18 9 -9 19 4 14 18 -4 11 -6 11 -12 0z"/>
<path d="M1440 4566 c0 -86 4 -147 10 -151 6 -4 10 45 10 139 0 86 -4 147 -10
151 -6 4 -10 -45 -10 -139z"/>
<path d="M3717 4703 c-7 -12 -1 -189 7 -201 3 -6 1 -22 -5 -36 -9 -20 -9 -29
1 -41 28 -33 69 -10 73 41 2 22 -3 29 -23 34 -24 6 -25 8 -28 108 -2 90 -10
119 -25 95z"/>
<path d="M2756 4684 c-41 -40 7 -109 59 -86 14 6 27 23 31 37 13 50 -53 86
-90 49z"/>
<path d="M3190 4645 c0 -33 12 -46 25 -25 8 12 -5 60 -16 60 -5 0 -9 -16 -9
-35z"/>
<path d="M3420 4640 c0 -17 5 -30 12 -30 9 0 9 -3 0 -12 -17 -17 -15 -31 4
-24 9 4 23 1 32 -6 13 -11 15 -10 9 12 -4 14 -7 30 -7 37 0 6 -9 14 -19 18
-12 4 -18 12 -14 21 3 7 0 14 -6 14 -6 0 -11 -13 -11 -30z"/>
<path d="M1200 4600 c0 -55 -20 -85 -64 -96 -22 -5 -26 -13 -32 -67 -6 -59 -9
-65 -68 -123 -33 -33 -76 -77 -94 -97 l-32 -37 -105 0 c-63 0 -105 -4 -105
-10 0 -6 43 -10 108 -10 l107 0 103 103 c98 98 103 105 108 154 6 46 10 53 44
72 21 12 41 28 44 37 10 26 7 124 -4 124 -5 0 -10 -22 -10 -50z"/>
<path d="M985 4626 c-24 -17 -24 -86 0 -122 9 -14 15 -46 15 -82 0 -59 0 -59
-55 -111 -31 -28 -53 -56 -49 -62 4 -7 24 6 52 33 71 66 71 68 72 141 0 37 4
67 10 67 13 0 40 54 40 82 0 31 -27 68 -49 68 -9 0 -26 -6 -36 -14z"/>
<path d="M1640 4529 c0 -71 4 -108 10 -104 6 3 10 52 10 111 0 63 -4 104 -10
104 -6 0 -10 -44 -10 -111z"/>
<path d="M4982 4628 c-21 -21 -14 -66 13 -84 24 -15 27 -15 44 0 19 18 31 11
44 -26 7 -19 37 -25 37 -8 0 6 -4 10 -10 10 -16 0 -38 65 -33 94 3 15 1 26 -6
26 -6 0 -11 -5 -11 -12 0 -9 -3 -9 -12 0 -7 7 -21 12 -33 12 -12 0 -26 -5 -33
-12z"/>
<path d="M1123 4590 c-13 -10 -23 -24 -23 -31 0 -8 12 -2 27 13 32 32 28 45
-4 18z"/>
<path d="M2510 4590 c-42 -42 -13 -110 46 -110 23 0 64 42 64 65 0 7 -9 24
-21 39 -25 31 -61 34 -89 6z m75 -21 c4 -5 4 -21 1 -35 -5 -17 -13 -24 -31
-24 -29 0 -47 27 -34 52 11 20 54 24 64 7z"/>
<path d="M18 4594 c-40 -12 -14 -24 50 -24 114 0 108 18 115 -316 l6 -288 40
-40 c21 -23 46 -56 55 -73 9 -18 28 -40 41 -49 23 -15 25 -23 25 -90 0 -70 -2
-75 -24 -84 -24 -9 -53 -47 -43 -56 3 -3 17 7 32 21 14 15 28 25 31 23 12 -12
-18 -53 -96 -135 -123 -128 -143 -154 -130 -167 9 -8 19 -2 41 24 17 19 37 34
46 32 11 -3 14 1 9 14 -5 12 16 39 74 100 87 91 82 78 84 220 1 65 3 73 30 96
52 44 29 138 -26 111 -13 -6 -36 -14 -53 -18 -16 -4 -33 -12 -37 -18 -5 -8 -8
-5 -8 7 0 10 -16 36 -35 57 -33 36 -35 44 -35 105 l0 65 59 -45 c33 -25 68
-46 78 -45 14 0 12 3 -6 10 -14 5 -43 27 -66 48 -23 21 -46 40 -52 42 -8 3
-14 77 -19 216 -7 206 -8 213 -31 234 -17 17 -37 23 -81 25 -31 2 -65 0 -74
-2z"/>
<path d="M1980 4551 l-45 -6 -3 -89 c-4 -112 6 -126 86 -126 60 0 92 -20 145
-88 23 -31 27 -45 27 -103 0 -65 -1 -69 -30 -86 -16 -9 -30 -21 -30 -25 0 -12
10 -10 46 13 34 20 34 21 34 94 0 70 -2 75 -39 122 -66 84 -95 103 -156 103
-30 0 -57 5 -60 10 -4 6 -8 41 -11 79 -5 80 -1 84 78 76 27 -3 50 0 54 6 3 6
4 12 3 13 -10 9 -59 12 -99 7z"/>
<path d="M20 4529 c0 -20 21 -49 36 -49 13 0 13 4 -1 30 -15 29 -35 40 -35 19z"/>
<path d="M1226 4513 c-11 -11 -6 -23 9 -23 8 0 15 4 15 9 0 13 -16 22 -24 14z"/>
<path d="M4197 4513 c-4 -3 7 -14 23 -24 55 -34 44 -58 -90 -194 l-120 -122 0
-112 c0 -112 4 -124 37 -103 9 6 10 32 3 106 l-10 99 104 107 c57 58 111 121
120 139 22 43 14 76 -24 96 -33 17 -34 17 -43 8z"/>
<path d="M4014 4445 c-34 -52 31 -111 76 -70 22 20 26 65 8 83 -21 21 -66 14
-84 -13z m66 -10 c18 -21 5 -47 -22 -43 -26 3 -37 36 -16 49 18 12 24 11 38
-6z"/>
<path d="M1210 4430 c0 -6 35 -10 86 -10 54 0 83 4 79 10 -3 6 -42 10 -86 10
-46 0 -79 -4 -79 -10z"/>
<path d="M706 4414 c-33 -32 -5 -84 45 -84 32 0 49 17 49 50 0 14 -5 31 -12
38 -17 17 -64 15 -82 -4z"/>
<path d="M0 4360 c0 -66 13 -77 50 -40 36 36 17 100 -31 100 -17 0 -19 -7 -19
-60z"/>
<path d="M2866 4391 c-5 -7 -48 -11 -115 -11 l-109 0 -36 -40 c-36 -40 -36
-41 -36 -131 0 -83 -2 -94 -25 -121 -23 -27 -25 -37 -25 -133 0 -102 -1 -105
-31 -140 -22 -25 -39 -35 -60 -35 -16 0 -29 -4 -29 -10 0 -5 15 -10 34 -10 27
0 42 9 75 45 l41 45 0 98 c0 92 2 100 25 122 23 22 25 30 25 125 0 99 1 102
30 130 29 28 30 28 166 29 100 1 138 4 141 14 3 7 -5 12 -19 12 -13 0 -29 5
-35 11 -8 8 -13 8 -17 0z"/>
<path d="M2282 4368 c-7 -7 -12 -24 -12 -38 0 -33 17 -50 50 -50 33 0 50 17
50 50 0 33 -17 50 -50 50 -14 0 -31 -5 -38 -12z m66 -35 c3 -22 -28 -40 -48
-28 -12 7 -13 38 -3 49 15 14 48 1 51 -21z"/>
<path d="M2652 4297 c-31 -32 -32 -36 -32 -119 0 -51 4 -90 11 -93 5 -4 16
-19 22 -33 10 -23 12 -9 17 95 6 156 8 158 125 158 122 0 113 19 -10 23 l-100
3 -33 -34z"/>
<path d="M2890 4305 c-15 -17 -5 -35 20 -35 22 0 33 23 17 39 -15 15 -22 14
-37 -4z"/>
<path d="M122 4269 c-7 -23 -10 -44 -7 -47 10 -11 46 39 43 60 -5 36 -22 30
-36 -13z"/>
<path d="M3267 4288 c-32 -23 -37 -44 -7 -28 11 6 24 9 28 6 5 -3 132 -7 283
-10 l274 -6 28 -30 c25 -28 27 -36 27 -120 0 -53 4 -90 10 -90 6 0 10 38 10
95 0 91 -1 96 -30 129 l-31 35 -112 5 c-62 3 -184 9 -272 12 -88 3 -164 9
-170 14 -6 5 -22 0 -38 -12z"/>
<path d="M1732 4173 l-2 -131 51 -61 c28 -34 59 -66 69 -71 10 -6 78 -10 151
-10 125 0 135 -2 177 -26 37 -22 52 -25 88 -20 36 5 45 2 54 -14 13 -24 13
-26 -6 -44 -29 -29 -69 -19 -124 29 -28 25 -61 45 -73 46 -12 1 -81 0 -153 -1
l-132 -2 -53 49 c-30 26 -70 61 -91 76 -20 15 -39 36 -43 45 -4 9 -6 66 -6
125 1 71 -2 106 -9 102 -6 -4 -10 -55 -10 -123 l0 -116 93 -88 92 -87 148 -1
c161 0 180 -5 231 -59 26 -27 37 -31 82 -31 65 0 86 18 82 69 -4 45 -40 67
-83 51 -23 -9 -35 -6 -74 17 -44 27 -52 28 -184 29 l-138 1 -50 49 c-28 27
-56 58 -62 69 -7 11 -15 74 -18 140 l-5 120 -2 -132z"/>
<path d="M1974 4280 c-62 -25 -88 -135 -41 -177 75 -68 167 -49 197 41 28 86
-70 171 -156 136z m90 -51 c51 -40 23 -119 -43 -121 -67 -2 -93 80 -40 125 28
22 50 22 83 -4z"/>
<path d="M349 4243 c5 -10 56 -64 114 -120 l106 -103 210 0 c142 0 219 -4 236
-12 36 -16 55 -57 55 -118 0 -41 5 -56 26 -77 36 -36 103 -29 170 18 27 18 51
35 53 36 2 2 2 6 -2 9 -3 3 -30 -8 -60 -25 -60 -34 -84 -38 -112 -17 -15 11
-19 25 -17 62 1 27 -3 64 -9 83 -11 33 -10 34 60 105 64 64 85 96 64 96 -4 0
-42 -35 -85 -77 -73 -73 -78 -76 -103 -65 -17 8 -99 12 -250 12 l-223 0 -49
38 c-26 21 -76 69 -110 105 -60 65 -95 88 -74 50z"/>
<path d="M3335 4200 c-24 -9 -83 -70 -69 -70 6 0 21 11 34 25 17 18 30 23 47
19 17 -5 23 -2 23 9 0 21 -11 26 -35 17z"/>
<path d="M3479 4189 c-14 -27 -4 -82 20 -103 18 -16 18 -18 0 -54 -23 -44 -24
-103 -4 -143 31 -59 117 -88 161 -54 22 17 22 17 -35 19 -36 2 -49 8 -74 36
-26 29 -29 38 -25 82 9 85 74 127 151 94 48 -19 77 -68 77 -127 0 -59 -31
-106 -87 -133 -23 -12 -42 -25 -43 -30 0 -15 54 5 89 32 93 75 94 200 3 270
-31 24 -45 27 -110 27 -79 1 -102 14 -102 58 0 18 5 19 77 12 93 -9 111 -15
156 -54 47 -42 67 -88 67 -155 0 -74 -18 -114 -71 -159 -49 -43 -100 -59 -167
-55 l-47 3 -5 50 c-4 35 -7 45 -12 32 -5 -10 -8 -31 -8 -46 0 -15 -5 -32 -10
-37 -6 -6 -8 -19 -4 -28 6 -16 18 -18 103 -14 83 3 103 7 142 30 82 48 131
133 130 227 0 70 -21 121 -69 169 -58 58 -96 72 -201 72 -82 0 -91 -2 -102
-21z"/>
<path d="M4712 4198 c-33 -33 17 -106 57 -81 20 13 27 59 10 79 -14 17 -51 18
-67 2z m48 -38 c0 -11 -6 -20 -14 -20 -18 0 -29 16 -21 30 11 18 35 11 35 -10z"/>
<path d="M0 4179 c0 -9 9 -24 21 -35 44 -40 49 -63 49 -253 l0 -181 -36 -40
c-24 -26 -34 -47 -32 -62 3 -21 8 -17 45 30 l43 54 0 204 0 205 -45 47 c-28
30 -45 41 -45 31z"/>
<path d="M145 4180 c-3 -5 -15 -10 -26 -10 -11 0 -17 -4 -14 -10 11 -17 42
-11 48 10 6 22 2 26 -8 10z"/>
<path d="M3804 4175 c-4 -9 -2 -21 4 -27 16 -16 47 -5 47 17 0 26 -42 34 -51
10z"/>
<path d="M4869 4163 c-44 -37 -59 -80 -59 -165 0 -67 -2 -74 -27 -94 -20 -16
-25 -26 -17 -34 8 -8 18 -5 37 10 24 19 27 29 27 78 1 93 15 141 49 176 31 30
34 31 136 34 58 2 105 8 105 13 0 5 -49 9 -109 9 -104 0 -111 -1 -142 -27z"/>
<path d="M1670 4160 c0 -11 5 -20 10 -20 6 0 10 9 10 20 0 11 -4 20 -10 20 -5
0 -10 -9 -10 -20z"/>
<path d="M2752 4145 c-37 -31 -48 -81 -28 -128 25 -60 45 -67 191 -67 98 -1
135 -4 149 -15 38 -29 64 -18 129 51 69 73 82 92 72 102 -4 4 -24 -13 -46 -36
-35 -40 -40 -43 -54 -28 -9 9 -24 16 -32 16 -13 0 -12 -5 7 -25 23 -24 23 -25
5 -45 -21 -23 -53 -26 -80 -6 -15 11 -46 13 -135 9 -135 -6 -165 2 -185 50
-27 66 22 139 82 121 l28 -8 -27 -4 c-29 -3 -68 -44 -68 -69 0 -22 56 -73 80
-73 33 0 73 46 66 76 l-6 24 139 0 c103 0 148 4 176 16 35 14 37 17 22 32 -15
15 -18 14 -40 -6 -22 -20 -33 -22 -156 -22 l-133 0 -35 30 c-42 37 -81 39
-121 5z m118 -89 c0 -25 -15 -36 -37 -29 -7 3 -13 16 -13 29 0 19 5 24 25 24
20 0 25 -5 25 -24z"/>
<path d="M410 4118 c0 -7 32 -43 71 -81 l71 -68 -36 -35 -36 -35 0 -156 0
-156 -50 -53 -50 -53 0 -72 c0 -72 0 -72 -42 -111 -45 -41 -57 -45 -88 -26
-16 10 -23 10 -37 -5 -27 -27 -7 -71 34 -75 26 -3 35 2 50 25 10 15 33 41 51
57 50 44 62 74 55 139 -6 56 -5 58 33 93 73 69 74 72 74 240 l0 152 35 31 36
31 155 0 c87 0 164 -5 175 -10 36 -20 49 -63 49 -168 0 -94 8 -122 34 -122 6
0 5 5 -2 12 -8 8 -12 49 -12 118 0 85 -4 110 -18 133 -36 54 -46 56 -205 57
-173 0 -195 7 -282 95 -57 58 -65 63 -65 43z"/>
<path d="M1670 4078 c0 -42 8 -68 21 -68 11 0 0 81 -12 95 -5 5 -9 -6 -9 -27z"/>
<path d="M4682 3963 c3 -124 5 -148 18 -148 12 0 16 22 18 125 3 139 -1 170
-23 170 -13 0 -15 -21 -13 -147z"/>
<path d="M4892 4068 c-15 -15 -17 -142 -2 -133 6 3 10 28 10 54 0 26 5 52 12
59 8 8 47 12 110 12 59 0 98 4 98 10 0 15 -213 13 -228 -2z"/>
<path d="M4490 4059 c0 -5 -85 -9 -190 -9 -162 0 -190 -2 -190 -15 0 -13 28
-15 193 -15 106 0 197 -4 203 -9 5 -5 25 -11 44 -13 l35 -3 0 -66 c0 -70 13
-99 46 -99 17 0 19 9 19 95 0 88 -2 98 -25 120 -25 26 -49 32 -59 16 -3 -5
-21 -5 -41 -1 -20 4 -35 4 -35 -1z"/>
<path d="M3960 4026 c0 -29 17 -43 33 -27 8 8 9 16 1 28 -17 27 -34 27 -34 -1z"/>
<path d="M2156 4004 c-9 -22 17 -49 39 -40 10 3 15 15 13 28 -4 29 -42 37 -52
12z"/>
<path d="M4956 4004 c-23 -22 -20 -48 10 -83 14 -17 23 -35 19 -40 -10 -17 6
-61 27 -72 45 -24 83 25 57 73 -8 12 -12 44 -10 70 2 38 -1 48 -17 57 -29 16
-68 14 -86 -5z m77 -28 c3 -8 0 -22 -7 -31 -10 -14 -16 -15 -34 -6 -22 12 -28
31 -15 44 12 12 51 7 56 -7z m24 -122 c7 -18 -17 -38 -31 -24 -11 11 -1 40 14
40 6 0 13 -7 17 -16z"/>
<path d="M3070 4001 c0 -17 18 -21 24 -6 3 9 0 15 -9 15 -8 0 -15 -4 -15 -9z"/>
<path d="M3586 3988 c-21 -29 -20 -41 2 -61 35 -32 82 -15 82 29 0 50 -57 71
-84 32z m52 -7 c19 -11 11 -45 -11 -49 -19 -4 -32 20 -23 43 6 17 15 19 34 6z"/>
<path d="M2647 3983 c-13 -12 -7 -41 8 -47 18 -6 30 16 21 39 -6 16 -18 19
-29 8z"/>
<path d="M3984 3847 l-144 -143 0 -161 c0 -136 -3 -164 -16 -178 -20 -20 -10
-33 14 -19 23 15 31 67 31 215 l1 127 140 143 c77 79 140 147 140 151 0 23
-35 -5 -166 -135z"/>
<path d="M4220 3953 c-13 -4 -65 -64 -96 -112 -5 -9 -49 -55 -98 -102 l-87
-86 3 -158 c3 -154 3 -157 -21 -176 -16 -13 -39 -19 -72 -19 l-49 0 0 -54 c0
-53 0 -54 -71 -120 l-70 -67 -116 3 c-96 3 -118 6 -127 20 -8 13 -6 22 8 37
19 21 19 21 -2 21 -21 0 -22 4 -22 111 l0 111 119 -3 c135 -4 153 2 133 46
-15 32 -62 36 -62 5 0 -19 -7 -20 -95 -20 -52 0 -95 4 -95 9 0 11 56 82 77 99
10 7 46 12 86 12 66 0 71 -1 101 -35 29 -31 38 -35 84 -35 29 0 52 -4 52 -10
0 -5 5 -10 10 -10 6 0 10 16 10 37 0 29 -8 43 -42 76 -78 74 -86 77 -246 77
l-143 0 -65 -67 c-40 -42 -64 -77 -64 -90 0 -18 -6 -23 -25 -23 -31 0 -65 -33
-65 -63 0 -13 9 -33 20 -45 56 -60 142 17 95 84 -13 19 -12 25 14 65 15 24 44
59 65 77 l37 32 144 0 143 0 56 -51 c31 -28 56 -55 56 -60 0 -5 -20 -9 -45 -9
-37 0 -50 5 -79 35 -35 34 -37 35 -119 35 l-84 0 -47 -50 -46 -49 -1 -131 c-2
-156 -2 -154 -11 -160 -14 -11 13 -79 39 -100 23 -18 40 -20 145 -20 l118 0
85 81 c81 78 85 84 85 125 l0 44 39 0 c49 0 87 29 101 78 5 20 10 100 10 176
l0 139 60 60 c45 45 64 58 80 54 19 -5 21 -2 15 24 -6 26 0 36 56 94 57 60 61
71 19 58z"/>
<path d="M4340 3953 c0 -5 23 -31 51 -58 73 -72 79 -88 79 -205 0 -60 4 -100
10 -100 6 0 10 45 10 114 l0 114 -46 51 c-48 53 -104 98 -104 84z"/>
<path d="M2578 3897 c5 -60 -9 -96 -53 -137 -23 -22 -36 -25 -107 -26 l-81 -1
-51 -57 c-28 -31 -56 -56 -63 -56 -6 0 -34 28 -61 63 -70 87 -102 113 -139
115 -34 2 -52 -13 -35 -30 6 -6 17 -5 31 3 18 12 24 10 57 -21 49 -48 105
-126 102 -142 -2 -8 10 -14 33 -16 34 -3 41 2 85 52 l48 56 79 0 80 0 47 48
c44 43 48 52 55 110 5 44 3 67 -5 77 -21 26 -27 17 -22 -38z"/>
<path d="M3252 3938 c-19 -19 -14 -30 8 -18 11 6 20 15 20 20 0 14 -14 12 -28
-2z"/>
<path d="M576 3905 c-31 -33 -36 -73 -29 -215 l6 -118 -57 -60 -56 -59 0 -64
c0 -59 -3 -68 -34 -104 -19 -22 -32 -43 -30 -47 3 -4 25 15 49 43 42 46 45 54
45 104 0 55 0 55 65 116 l65 62 0 126 c0 170 1 171 125 171 l94 0 -6 -337 c-5
-307 -12 -387 -31 -368 -4 4 -6 46 -4 93 3 64 0 92 -11 106 -14 19 -15 19 -27
-4 -8 -15 -11 -52 -8 -110 3 -69 1 -87 -9 -83 -9 4 -13 31 -13 98 0 77 3 96
20 118 18 23 20 40 20 180 0 125 3 157 15 167 33 27 6 100 -37 100 -29 0 -51
-36 -43 -72 10 -43 18 -334 10 -375 -5 -28 -10 -32 -43 -35 -37 -3 -37 -4 -40
-50 -4 -59 -35 -88 -94 -88 -28 0 -46 -7 -64 -26 -24 -24 -26 -30 -22 -106 4
-87 -1 -79 92 -151 36 -28 36 -28 36 -107 0 -105 6 -110 120 -110 69 0 89 3
94 15 6 17 4 18 -86 19 -36 1 -70 5 -75 9 -4 5 -10 45 -13 90 l-5 81 -52 40
-52 41 2 75 c2 72 3 75 32 89 85 43 105 62 105 100 0 38 14 61 37 61 10 0 13
-20 13 -76 0 -83 18 -137 53 -156 18 -9 26 -5 57 29 l37 39 6 264 c4 146 7
309 7 363 l0 97 -108 0 c-150 0 -146 5 -153 -167 l-6 -138 1 149 c1 147 1 149
26 168 23 17 37 18 137 12 85 -5 113 -10 118 -22 3 -8 6 -115 6 -238 0 -133 4
-224 10 -224 5 0 9 38 9 84 l0 85 35 -15 c20 -8 67 -14 116 -14 64 0 87 -4
101 -17 33 -30 76 18 48 52 -10 12 -40 15 -136 15 -165 0 -164 -1 -164 163 0
65 -5 127 -10 138 -10 17 -22 19 -141 19 -126 0 -131 -1 -153 -25z m151 -437
c-1 -40 -3 -8 -3 72 0 80 2 112 3 73 2 -40 2 -106 0 -145z"/>
<path d="M1140 3894 c0 -8 5 -12 10 -9 6 3 10 10 10 16 0 5 -4 9 -10 9 -5 0
-10 -7 -10 -16z"/>
<path d="M140 3892 c0 -5 27 -34 60 -65 90 -82 89 -85 -71 -237 -84 -81 -130
-132 -128 -142 3 -11 45 23 142 116 122 117 137 135 137 164 0 19 -4 41 -10
51 -12 24 -130 126 -130 113z"/>
<path d="M2951 3874 c-12 -15 -21 -33 -21 -40 0 -22 38 -54 63 -54 53 0 77 75
35 104 -32 23 -54 20 -77 -10z"/>
<path d="M0 3877 c0 -8 7 -20 15 -27 12 -10 15 -10 15 3 0 8 -7 20 -15 27 -12
10 -15 10 -15 -3z"/>
<path d="M1010 3811 c0 -60 4 -84 16 -96 21 -20 29 -13 15 13 -6 12 -11 52
-11 91 0 41 -4 71 -10 71 -6 0 -10 -33 -10 -79z"/>
<path d="M2654 3865 c-15 -10 -23 -30 -28 -66 -7 -48 -13 -58 -80 -126 -62
-61 -79 -73 -107 -73 -30 -1 -50 -16 -161 -125 -162 -159 -138 -167 30 -10
101 95 126 114 145 110 19 -5 39 9 110 77 77 74 87 87 87 118 0 55 23 80 75
80 35 0 48 -5 64 -26 18 -23 21 -41 21 -121 l0 -94 -51 -54 c-67 -71 -59 -87
11 -23 l55 49 7 107 c7 115 -1 146 -44 176 -28 20 -107 21 -134 1z"/>
<path d="M4207 3843 c-34 -4 -38 -7 -34 -25 4 -12 1 -31 -5 -42 -7 -12 -14
-39 -17 -61 -6 -39 -7 -40 -48 -43 -29 -2 -43 -8 -43 -18 0 -16 0 -16 57 -5
38 7 42 6 47 -15 4 -13 23 -35 43 -49 73 -49 181 -26 219 47 24 46 22 119 -6
157 -40 57 -83 67 -213 54z m137 -58 c74 -49 41 -175 -45 -175 -66 0 -117 90
-84 147 l16 28 -5 -39 c-6 -48 15 -99 49 -114 48 -22 95 13 95 69 0 31 -5 42
-26 56 -24 15 -27 16 -38 1 -7 -9 -21 -18 -31 -20 -16 -2 -21 4 -23 30 -3 31
-2 32 33 32 20 0 46 -7 59 -15z m-6 -47 c7 -7 12 -24 12 -38 0 -33 -17 -50
-51 -50 -31 0 -59 32 -59 65 1 18 3 17 21 -7 27 -36 69 -39 69 -5 0 13 -5 28
-12 35 -7 7 -8 12 -2 12 6 0 15 -5 22 -12z"/>
<path d="M2270 3825 c0 -8 5 -15 10 -15 6 0 10 7 10 15 0 8 -4 15 -10 15 -5 0
-10 -7 -10 -15z"/>
<path d="M42 3800 c0 -14 2 -19 5 -12 2 6 2 18 0 25 -3 6 -5 1 -5 -13z"/>
<path d="M1897 3813 c-22 -21 0 -63 33 -63 18 0 32 40 19 56 -12 15 -41 19
-52 7z"/>
<path d="M2732 3788 c-11 -15 -4 -178 8 -178 15 0 20 33 14 82 -5 38 -3 52 11
68 18 20 13 40 -9 40 -8 0 -18 -6 -24 -12z"/>
<path d="M4671 3776 c-9 -10 -8 -16 4 -26 19 -16 65 1 65 25 0 19 -53 20 -69
1z"/>
<path d="M4783 3783 c-27 -10 -11 -23 25 -23 59 0 136 -44 179 -102 34 -47 37
-56 37 -123 1 -84 13 -105 63 -105 37 0 43 24 7 26 -10 1 -25 2 -31 3 -9 1
-13 23 -13 74 0 65 -3 79 -31 120 -35 54 -81 95 -124 112 -36 15 -95 24 -112
18z"/>
<path d="M1250 3760 c-24 -24 -25 -38 -4 -68 29 -41 94 -14 94 40 0 18 -36 48
-57 48 -7 0 -22 -9 -33 -20z"/>
<path d="M3045 3768 c-28 -16 -35 -28 -35 -65 0 -22 7 -37 19 -45 17 -11 13
-18 -59 -87 l-78 -76 -4 -85 c-5 -84 -5 -84 -44 -115 -85 -67 -170 -160 -177
-194 -4 -18 -7 -170 -7 -337 l0 -304 35 0 35 0 0 328 0 328 85 83 c47 45 92
95 100 110 7 15 17 63 21 107 l7 78 66 68 c66 67 68 68 119 68 40 0 52 4 52
15 0 10 -10 15 -29 15 -28 0 -29 1 -18 26 12 25 13 25 107 22 89 -3 95 -2 95
17 0 19 -5 20 -98 16 -80 -3 -100 -1 -110 12 -16 22 -58 29 -82 15z m-338
-1146 c-1 -81 -3 -12 -3 153 0 165 2 231 3 147 2 -84 2 -219 0 -300z"/>
<path d="M4990 3759 c0 -5 5 -7 10 -4 6 3 10 8 10 11 0 2 -4 4 -10 4 -5 0 -10
-5 -10 -11z"/>
<path d="M5033 3746 c-29 -14 -29 -17 6 -50 33 -32 74 -33 79 -1 3 16 1 18 -9
8 -15 -15 -63 -18 -55 -4 3 5 -1 12 -10 15 -15 6 -15 8 1 26 20 22 20 22 -12
6z"/>
<path d="M1424 3711 c-21 -16 -83 -73 -136 -128 l-98 -100 0 -103 c0 -93 -2
-106 -22 -127 -31 -33 -13 -42 20 -10 25 26 27 34 31 129 1 57 8 109 15 118 6
8 59 61 117 118 l107 102 56 0 c54 0 73 11 40 24 -38 15 -92 5 -130 -23z"/>
<path d="M3945 3717 c3 -6 -5 -17 -17 -22 -22 -10 -23 -16 -28 -165 -3 -107
-9 -163 -19 -180 -14 -24 -14 -24 10 -9 23 16 24 20 25 168 2 140 3 154 23
175 22 23 28 46 11 46 -5 0 -7 -6 -5 -13z"/>
<path d="M1774 3699 c-65 -19 -106 -102 -80 -164 22 -51 61 -75 121 -75 57 0
65 -8 65 -73 0 -16 4 -26 10 -22 14 9 12 56 -4 87 -9 16 -11 30 -5 33 11 7 12
45 1 45 -4 0 -24 -9 -45 -20 -44 -24 -68 -20 -97 17 -29 37 -26 79 9 114 l29
29 131 0 131 0 97 -90 c54 -49 102 -90 106 -90 21 0 -5 32 -95 116 l-96 91
-93 6 c-113 8 -145 8 -185 -4z"/>
<path d="M2618 3626 c-32 -33 -54 -64 -49 -69 10 -10 121 89 121 108 0 29 -17
19 -72 -39z"/>
<path d="M4938 3657 c33 -35 42 -81 35 -165 -6 -73 -8 -77 -53 -124 -45 -46
-48 -48 -103 -48 -32 0 -73 7 -92 15 -41 16 -91 67 -111 110 -9 20 -13 24 -14
12 0 -30 26 -71 74 -115 37 -34 53 -42 88 -44 119 -6 149 6 198 74 29 39 30
46 30 144 0 96 -2 105 -26 133 -14 17 -31 31 -37 31 -6 0 -1 -11 11 -23z"/>
<path d="M2897 3606 c-27 -28 -53 -58 -58 -66 -5 -8 -9 -56 -9 -105 l0 -90
-85 -85 c-47 -47 -85 -90 -85 -97 0 -7 19 8 42 34 24 25 68 63 99 84 31 21 59
45 63 54 3 9 6 57 6 107 l0 91 50 53 c28 29 50 58 50 63 0 22 -26 7 -73 -43z"/>
<path d="M4644 3635 c-24 -37 -12 -40 15 -5 12 17 17 30 12 30 -6 0 -18 -11
-27 -25z"/>
<path d="M4718 3635 c-43 -29 -63 -79 -55 -139 11 -83 112 -135 175 -90 21 14
21 17 7 44 -14 26 -14 29 0 24 12 -5 15 3 15 38 0 48 -13 68 -45 68 -52 0 -59
-51 -15 -111 35 -49 30 -63 -17 -56 -51 9 -81 32 -94 75 -20 69 22 133 99 148
28 6 37 2 67 -30 19 -21 35 -34 35 -29 0 12 -30 56 -48 71 -26 20 -84 14 -124
-13z m120 -113 c3 -27 0 -33 -14 -30 -23 4 -39 31 -31 52 12 30 42 14 45 -22z"/>
<path d="M1544 3635 c-4 -10 -21 -15 -54 -15 -43 0 -51 -4 -99 -51 -49 -50
-51 -54 -51 -105 0 -51 14 -72 26 -39 4 8 10 13 14 10 12 -8 33 23 26 40 -8
21 -21 19 -34 -7 -10 -22 -11 -22 -11 8 -1 25 9 41 49 78 56 53 104 62 140 26
27 -27 46 -25 65 4 13 19 14 29 5 45 -13 25 -67 29 -76 6z"/>
<path d="M4602 3625 c-7 -14 -11 -47 -11 -73 l1 -47 8 51 c4 28 13 60 19 72 6
12 8 22 3 22 -5 0 -14 -11 -20 -25z"/>
<path d="M1773 3612 c-20 -27 -20 -31 -7 -51 18 -25 37 -27 54 -6 9 10 17 12
23 6 5 -5 23 -7 41 -5 53 8 61 -5 64 -108 4 -107 1 -102 115 -194 l79 -64 81
0 82 0 120 125 c66 69 125 125 132 125 7 0 26 -14 43 -30 24 -24 37 -29 58
-24 27 6 72 47 72 65 0 20 -30 20 -59 0 -36 -26 -36 -26 -72 0 -19 13 -38 19
-52 15 -12 -3 -73 -57 -136 -120 -102 -104 -118 -116 -157 -122 -75 -11 -110
2 -195 73 l-79 66 0 52 c0 29 -3 68 -6 86 -4 26 -3 30 5 19 6 -8 11 -45 11
-82 0 -61 2 -69 26 -85 14 -10 48 -37 75 -60 48 -41 52 -43 116 -43 l66 0 49
53 c57 61 148 194 148 217 -1 19 -32 -19 -60 -72 -25 -47 -135 -165 -162 -174
-11 -3 -35 -3 -54 1 -42 7 -61 46 -59 118 0 26 -3 47 -7 47 -4 0 -8 -19 -8
-42 l0 -43 -44 -3 c-55 -3 -66 12 -66 96 0 45 -5 67 -23 93 -21 32 -27 34 -84
37 -60 3 -62 4 -60 30 2 22 -3 28 -23 30 -19 2 -31 -5 -47 -26z"/>
<path d="M3169 3568 c-13 -18 -40 -52 -61 -75 -30 -33 -38 -51 -38 -80 0 -32
-7 -43 -40 -70 -21 -18 -43 -33 -49 -33 -18 0 -12 36 9 55 11 10 20 25 20 33
0 10 -11 4 -30 -16 -35 -37 -38 -67 -10 -82 40 -22 120 56 120 117 0 29 10 46
55 95 30 32 55 66 55 74 0 21 -6 17 -31 -18z"/>
<path d="M2070 3564 c0 -17 37 -60 45 -53 3 4 -5 20 -19 35 -14 16 -26 24 -26
18z"/>
<path d="M4048 3513 c-32 -34 -36 -45 -42 -108 -14 -155 -16 -164 -39 -167
-29 -4 -36 -38 -8 -38 11 0 23 -4 26 -10 3 -5 18 -7 33 -4 22 4 34 -2 67 -35
l39 -41 78 0 c45 0 78 4 78 10 0 6 -32 10 -75 10 l-76 0 -49 46 -50 47 0 121
0 122 35 34 c34 33 43 50 27 50 -4 0 -24 -17 -44 -37z"/>
<path d="M4493 3535 c-9 -25 4 -29 17 -6 7 15 7 21 0 21 -6 0 -13 -7 -17 -15z"/>
<path d="M147 3512 c-45 -46 -29 -60 20 -18 20 17 25 28 17 35 -7 8 -18 3 -37
-17z"/>
<path d="M4161 3486 c-31 -31 -46 -56 -51 -85 -4 -23 -3 -44 1 -47 5 -3 9 -30
9 -60 0 -36 4 -53 10 -49 7 4 9 24 5 48 -6 40 -4 43 27 57 27 12 34 21 36 51
2 23 -2 40 -13 49 -14 12 -12 17 17 47 21 21 27 33 17 33 -8 0 -34 -20 -58
-44z m20 -64 c6 -17 3 -28 -11 -42 -39 -39 -70 11 -33 52 20 22 33 19 44 -10z"/>
<path d="M4339 3514 c-11 -14 -10 -21 4 -46 16 -28 16 -30 0 -24 -11 5 -29 -5
-55 -31 -37 -36 -38 -39 -38 -111 0 -40 5 -82 10 -93 19 -34 70 -18 70 22 0
12 -6 16 -20 12 -14 -4 -20 0 -20 12 0 12 5 15 20 10 17 -6 20 -2 20 28 0 42
40 135 69 161 26 24 26 31 1 56 -24 24 -43 25 -61 4z m51 -29 c0 -8 -7 -15
-15 -15 -8 0 -15 7 -15 15 0 8 7 15 15 15 8 0 15 -7 15 -15z m-78 -127 c-15
-15 -26 -4 -18 18 5 13 9 15 18 6 9 -9 9 -15 0 -24z m6 -40 c-6 -18 -28 -21
-28 -4 0 9 7 16 16 16 9 0 14 -5 12 -12z"/>
<path d="M1146 3489 c-3 -18 -6 -68 -6 -112 0 -78 -1 -82 -32 -114 -17 -18
-28 -36 -24 -40 4 -4 25 11 47 35 l40 42 -2 105 c-2 107 -11 141 -23 84z"/>
<path d="M583 3460 c-43 -47 -43 -48 -43 -123 0 -75 -1 -77 -25 -77 -14 0 -25
-4 -25 -9 0 -19 22 -22 45 -7 23 15 25 23 25 91 0 74 1 76 40 119 22 24 40 46
40 50 0 14 -17 1 -57 -44z"/>
<path d="M3010 3486 c0 -9 5 -16 10 -16 6 0 10 4 10 9 0 6 -4 13 -10 16 -5 3
-10 -1 -10 -9z"/>
<path d="M4461 3466 c-9 -11 -9 -20 -2 -35 16 -28 14 -31 -15 -31 -39 0 -84
-50 -84 -95 0 -27 8 -44 29 -66 34 -34 64 -37 108 -9 36 22 48 54 40 108 l-6
37 32 -40 c80 -100 69 -95 218 -95 l132 0 49 46 c42 39 54 45 79 40 27 -5 79
10 79 23 0 3 -28 5 -62 3 -59 -3 -66 -7 -108 -47 l-45 -43 -130 3 -129 2 -26
34 c-14 19 -37 45 -53 59 -22 21 -25 29 -15 40 11 12 10 12 -4 1 -24 -18 -52
3 -44 33 5 19 -9 46 -24 46 -4 0 -13 -6 -19 -14z m31 -131 c17 -37 -3 -75 -40
-75 -35 0 -52 16 -52 50 0 34 17 50 52 50 21 0 32 -7 40 -25z"/>
<path d="M968 3459 c-14 -8 -18 -23 -18 -71 0 -58 -2 -62 -50 -118 -65 -75
-49 -87 19 -15 50 53 51 55 51 115 0 65 15 85 45 60 13 -10 15 -33 13 -109 -3
-91 -4 -96 -25 -99 -31 -5 -29 -22 2 -22 16 0 25 -6 25 -15 0 -9 -9 -15 -25
-15 -16 0 -25 -6 -25 -15 0 -9 9 -15 25 -15 18 0 23 -4 19 -15 -4 -8 -17 -15
-31 -15 -36 0 -23 -22 15 -25 18 -2 32 -2 32 -1 1 0 3 78 7 172 5 166 5 172
-16 193 -23 23 -37 25 -63 10z"/>
<path d="M1483 3448 c-39 -21 -245 -234 -300 -310 -34 -46 -31 -99 8 -142 23
-27 30 -43 27 -67 -2 -19 2 -34 10 -36 8 -3 12 7 12 30 0 29 7 41 44 71 l44
36 161 0 c88 0 172 5 188 11 38 14 90 66 115 113 29 57 23 158 -15 215 -44 66
-97 95 -181 99 -59 3 -78 0 -113 -20z m204 -44 c115 -85 106 -249 -17 -311
-40 -21 -58 -23 -203 -23 l-158 0 -33 -36 c-29 -32 -36 -35 -54 -25 -25 13
-37 50 -28 84 8 30 243 283 291 314 34 20 50 24 107 21 49 -3 75 -9 95 -24z"/>
<path d="M1554 3325 c-52 -27 -68 -88 -39 -145 51 -100 202 -38 181 73 -12 66
-83 102 -142 72z m88 -52 c10 -9 18 -27 18 -40 0 -22 -31 -63 -47 -63 -29 1
-53 16 -63 41 -25 59 44 106 92 62z"/>
<path d="M64 3445 c3 -10 -1 -15 -12 -16 -11 0 -7 -5 11 -13 l28 -12 -25 -12
c-17 -7 -24 -17 -20 -27 9 -22 14 -18 59 33 39 44 40 45 13 38 -16 -3 -28 -2
-28 3 0 5 -7 12 -16 15 -12 4 -15 2 -10 -9z"/>
<path d="M2055 3441 c-8 -25 1 -41 21 -41 18 0 18 34 0 49 -11 10 -16 8 -21
-8z"/>
<path d="M3670 3395 c0 -8 6 -15 14 -15 17 0 28 -24 20 -45 -8 -20 -24 -19
-24 2 0 15 -1 15 -18 0 -12 -11 -36 -17 -66 -17 -29 0 -45 -4 -41 -10 3 -5 37
-10 74 -10 53 0 72 4 84 18 22 24 21 55 -1 75 -23 21 -42 22 -42 2z"/>
<path d="M851 3382 c-14 -26 13 -66 29 -42 14 21 12 36 -4 49 -12 10 -17 8
-25 -7z"/>
<path d="M2527 3309 l-67 -61 0 -56 c0 -55 2 -58 52 -109 56 -57 56 -78 2 -71
-23 2 -29 7 -27 26 3 23 -20 31 -32 11 -11 -17 36 -59 66 -59 27 0 28 -2 31
-62 5 -97 23 -76 26 30 l3 93 -51 49 c-45 43 -50 53 -50 91 0 40 5 49 62 106
34 34 59 65 57 68 -3 3 -36 -22 -72 -56z"/>
<path d="M2635 3351 c-3 -5 -1 -12 5 -16 5 -3 10 1 10 9 0 18 -6 21 -15 7z"/>
<path d="M1887 3339 c-14 -28 -4 -392 11 -397 9 -3 12 -35 12 -117 0 -101 -3
-119 -25 -163 -17 -34 -36 -55 -59 -66 -38 -18 -111 -22 -121 -6 -3 6 3 10 15
10 12 0 18 5 15 10 -11 18 -31 11 -45 -15 -13 -25 -14 -25 -159 -25 l-146 -1
-82 -79 -83 -79 0 -369 c0 -409 6 -373 -74 -462 -22 -25 -49 -50 -60 -57 -32
-19 -237 -17 -284 2 -39 17 -122 91 -122 110 0 6 -25 35 -55 65 l-55 54 0 119
0 118 30 17 c35 20 40 36 8 27 -50 -15 -58 -38 -58 -173 l0 -125 61 -66 c126
-135 153 -161 171 -167 10 -3 16 -9 13 -13 -6 -11 33 -46 41 -38 4 4 1 13 -6
22 -11 13 3 15 126 15 l138 0 63 67 c99 107 94 79 87 485 l-6 353 78 77 79 77
212 3 c242 3 246 5 295 94 26 46 28 57 28 170 0 95 -3 124 -15 134 -12 10 -15
50 -17 209 -2 109 -7 189 -11 180z"/>
<path d="M3 3304 c-3 -9 -1 -24 5 -33 24 -32 25 -45 9 -73 -9 -17 -17 -39 -17
-51 0 -19 2 -19 30 8 24 23 32 26 44 16 20 -17 77 -10 90 11 15 24 -6 58 -64
102 -51 39 -87 46 -97 20z m127 -79 c19 -20 22 -28 11 -34 -7 -5 -25 -5 -40
-2 -21 6 -27 14 -29 45 -3 33 -1 36 15 28 10 -6 29 -22 43 -37z"/>
<path d="M3478 3309 c-15 -8 -18 -24 -18 -88 0 -100 6 -105 102 -99 70 6 74 7
111 49 37 42 45 74 18 74 -8 0 -18 -13 -22 -29 -15 -55 -35 -66 -116 -66 l-73
0 0 74 0 73 33 11 c29 9 29 10 7 11 -14 0 -33 -4 -42 -10z"/>
<path d="M3095 3290 c-3 -5 -33 -10 -66 -10 -56 0 -63 -3 -132 -54 -39 -30
-85 -68 -102 -86 l-30 -31 -5 -323 c-4 -240 -2 -322 6 -319 21 8 24 60 24 354
l0 289 35 39 c25 28 41 38 55 34 13 -4 20 0 20 9 0 8 15 25 33 39 25 19 44 24
89 24 46 0 62 4 80 23 12 12 17 22 11 22 -7 0 -15 -4 -18 -10z"/>
<path d="M4970 3245 c-24 -24 -40 -48 -36 -52 4 -4 23 11 42 35 34 40 38 42
90 42 30 0 54 5 54 10 0 6 -24 10 -53 10 -49 0 -56 -3 -97 -45z"/>
<path d="M1927 3273 c-15 -15 -5 -45 28 -82 l35 -38 0 -284 0 -284 -40 -44
-40 -44 0 -131 c0 -141 -10 -176 -51 -176 -17 0 -19 5 -14 34 4 18 3 36 -3 40
-5 3 -9 -8 -10 -24 0 -15 -8 -42 -16 -59 -20 -38 -95 -83 -141 -84 -47 -1 -85
35 -85 80 0 18 -4 33 -10 33 -12 0 -40 54 -40 78 0 11 9 31 21 46 16 21 29 26
64 26 51 0 74 20 50 44 -34 34 -122 8 -155 -46 -30 -50 -27 -110 9 -150 15
-18 31 -43 35 -55 32 -101 150 -107 244 -12 45 45 72 51 72 16 0 -31 18 -47
52 -47 29 0 48 -23 48 -58 0 -10 9 -27 21 -38 20 -18 21 -17 65 29 35 37 44
54 44 82 0 19 -4 35 -10 35 -5 0 -10 -12 -10 -27 0 -47 -13 -58 -48 -44 -17 7
-36 10 -41 6 -14 -8 -15 27 -1 41 5 5 11 74 12 154 l3 145 53 39 52 39 0 293
c0 253 2 295 16 308 12 12 37 16 109 16 l93 0 36 40 c33 36 45 60 31 60 -3 0
-23 -18 -44 -40 l-38 -40 -95 0 c-79 0 -98 -3 -111 -18 -15 -16 -17 -53 -17
-310 0 -258 -2 -293 -16 -304 -9 -7 -37 -32 -62 -56 l-45 -42 6 -128 c4 -70 4
-132 -1 -138 -11 -16 -42 -25 -62 -19 -28 9 -32 34 -10 65 17 25 20 44 20 154
l0 126 40 44 40 43 0 296 0 295 -36 43 c-22 26 -34 50 -31 61 5 18 -4 24 -16
11z m113 -1224 c0 -11 -6 -19 -14 -19 -17 0 -31 34 -21 50 10 16 35 -8 35 -31z"/>
<path d="M3500 3222 c0 -47 14 -62 58 -62 45 0 72 16 72 44 0 36 -30 56 -83
56 l-47 0 0 -38z m88 -15 c2 -11 -3 -17 -17 -17 -23 0 -35 15 -26 31 10 15 39
6 43 -14z"/>
<path d="M5043 3168 l-73 -73 0 -62 c0 -57 2 -61 26 -67 15 -4 33 -2 42 6 47
35 82 74 82 92 0 17 -6 14 -40 -19 l-40 -39 0 39 c0 32 7 46 41 81 35 35 40
46 37 78 l-3 37 -72 -73z"/>
<path d="M2960 3215 c-30 -36 37 -94 79 -68 10 6 16 24 16 44 0 33 -2 34 -41
37 -28 2 -45 -2 -54 -13z m82 -47 c-8 -8 -9 -4 -5 13 4 13 8 18 11 10 2 -7 -1
-18 -6 -23z"/>
<path d="M4575 3171 c-81 -34 -118 -154 -76 -245 11 -23 25 -56 31 -74 21 -56
91 -55 98 1 3 25 1 26 -28 21 -47 -10 -59 14 -60 118 0 84 1 87 31 112 19 16
43 26 63 26 34 0 80 -26 71 -41 -3 -5 1 -6 9 -3 21 8 38 -69 26 -121 -15 -63
20 -109 59 -77 21 17 21 19 7 104 -16 100 -39 139 -96 168 -40 21 -99 25 -135
11z"/>
<path d="M4956 3163 c-11 -11 -6 -23 9 -23 8 0 15 4 15 9 0 13 -16 22 -24 14z"/>
<path d="M4209 3151 l75 -6 33 -47 33 -46 -20 -35 c-22 -38 -19 -59 14 -87 14
-11 16 -49 16 -264 l0 -252 25 -34 c30 -41 31 -57 5 -65 -25 -8 -26 -40 -2
-50 12 -4 23 1 35 18 17 22 22 23 57 14 47 -13 85 8 106 59 12 30 12 38 0 62
-14 28 -56 71 -56 58 0 -4 10 -25 23 -46 17 -31 20 -43 11 -57 -13 -22 -79
-32 -72 -11 3 7 10 13 17 13 14 0 32 26 24 38 -2 4 -11 3 -18 -3 -10 -9 -20
-7 -38 4 -24 16 -24 17 -30 254 -3 131 -9 246 -13 257 -6 19 -6 19 10 4 24
-23 35 -121 36 -316 0 -102 4 -163 10 -163 14 0 13 317 -2 399 -6 37 -20 75
-31 88 -14 15 -17 29 -13 50 5 22 2 34 -14 48 -15 14 -17 21 -9 32 8 9 8 13 1
13 -6 0 -14 -4 -17 -10 -14 -22 -44 -8 -71 33 -16 23 -27 45 -26 50 1 4 -37 6
-85 5 l-88 -2 74 -5z m184 -209 l28 -57 -1 -228 c-2 -220 -1 -229 19 -251 12
-12 18 -25 15 -29 -10 -9 -61 20 -68 38 -3 9 -6 126 -6 260 0 207 -2 244 -16
255 -21 19 -36 49 -29 60 13 22 31 7 58 -48z"/>
<path d="M840 3070 c0 -68 3 -83 21 -101 15 -15 27 -19 42 -13 12 4 68 9 125
11 80 3 102 7 102 19 0 11 -19 14 -95 14 -114 0 -135 13 -135 83 0 46 -13 67
-42 67 -16 0 -18 -10 -18 -80z"/>
<path d="M251 3094 c-28 -36 -26 -50 9 -85 34 -35 61 -33 98 7 27 31 28 44 1
78 -15 19 -30 26 -54 26 -24 0 -39 -7 -54 -26z m79 -8 c19 -23 8 -61 -18 -64
-44 -7 -67 32 -36 62 19 20 38 20 54 2z"/>
<path d="M3949 3111 c21 -14 -5 -24 -30 -11 -11 7 -31 9 -43 6 -30 -7 -216
-184 -216 -205 0 -10 14 -30 30 -46 30 -29 30 -29 30 -141 0 -62 3 -119 6
-128 3 -9 21 -25 40 -37 28 -17 44 -20 79 -14 63 9 56 25 -11 25 -47 0 -57 3
-61 20 -3 11 -9 20 -14 20 -5 0 -9 54 -9 120 l0 119 -30 23 c-16 12 -30 29
-30 38 0 9 23 38 50 65 33 33 50 44 50 33 0 -24 28 -48 55 -48 15 0 36 16 63
48 l40 47 31 -29 c25 -24 31 -38 33 -85 3 -49 6 -56 26 -59 22 -3 30 12 12 23
-10 6 -14 45 -5 45 16 0 69 -42 143 -114 45 -44 82 -76 82 -71 0 6 -40 52 -90
102 -49 51 -90 101 -90 111 0 10 -20 45 -45 76 -25 32 -45 62 -45 67 0 5 -15
9 -32 9 -23 0 -29 -3 -19 -9z m-39 -49 c0 -4 -12 -24 -26 -45 -30 -45 -67 -49
-72 -8 -3 20 0 23 17 18 14 -3 25 2 36 19 14 22 45 33 45 16z m119 -27 c17
-20 31 -40 31 -45 0 -4 3 -15 6 -24 4 -11 1 -16 -10 -16 -9 0 -16 8 -16 20 0
11 -16 38 -36 60 -24 26 -31 40 -21 40 8 0 29 -16 46 -35z"/>
<path d="M4017 3106 c4 -8 70 -74 145 -146 l137 -131 3 -270 3 -271 33 -29
c44 -40 64 -37 24 4 l-31 32 -3 269 -3 269 -148 143 c-136 131 -182 169 -160
130z"/>
<path d="M2882 3095 c-12 -9 -33 -35 -47 -59 -25 -43 -25 -43 -25 -298 0 -239
-1 -257 -20 -280 -15 -20 -31 -26 -75 -30 -54 -5 -59 -7 -133 -80 -42 -42 -85
-80 -96 -85 -11 -6 -66 -8 -130 -5 l-112 5 -32 -37 c-21 -24 -32 -47 -32 -66
0 -38 7 -38 46 5 l32 35 107 0 108 0 103 105 c101 103 104 105 148 105 36 0
52 6 75 28 l30 27 7 265 c9 363 3 354 219 344 77 -4 148 -11 158 -16 10 -5 27
-24 37 -41 17 -28 20 -51 20 -170 0 -136 0 -138 -26 -162 -50 -47 -54 -38 -54
115 0 118 2 140 15 140 13 0 15 -20 15 -120 0 -73 4 -120 10 -120 6 0 10 50
10 129 0 122 -1 130 -20 136 -13 4 -31 0 -45 -9 -24 -16 -25 -22 -25 -112 0
-89 -2 -98 -26 -127 -17 -20 -24 -37 -20 -51 3 -12 6 -42 6 -68 0 -27 5 -48
10 -48 6 0 8 15 4 40 -7 41 2 110 14 110 4 0 7 -70 7 -156 0 -142 2 -157 19
-170 15 -10 54 -14 153 -14 l133 0 0 25 0 24 -122 3 -123 3 -3 98 c-3 94 -2
97 21 106 13 5 36 24 50 41 27 31 27 33 27 188 0 139 -2 161 -20 190 -38 63
-68 72 -230 72 -115 0 -150 -3 -168 -15z"/>
<path d="M49 3061 c-71 -71 3 -192 90 -147 31 16 57 66 47 91 -3 8 -17 20 -32
25 -21 8 -31 7 -45 -6 -21 -19 -23 -32 -9 -54 9 -13 13 -12 29 8 24 28 33 28
29 0 -2 -13 -15 -29 -30 -36 -74 -35 -109 73 -38 117 17 10 27 21 23 24 -13
14 -35 6 -64 -22z"/>
<path d="M4650 3065 c-6 -7 -25 -15 -42 -17 -36 -3 -59 -31 -41 -49 8 -8 16
-6 29 9 10 12 20 19 24 17 3 -2 19 6 35 19 17 13 24 25 18 29 -6 4 -16 0 -23
-8z"/>
<path d="M992 3048 c2 -17 10 -23 28 -23 18 0 26 6 28 23 3 19 -1 22 -28 22
-27 0 -31 -3 -28 -22z"/>
<path d="M2207 3064 c-13 -13 -7 -24 14 -24 11 0 19 5 17 12 -5 14 -22 21 -31
12z"/>
<path d="M2923 3012 c-2 -10 -5 -155 -6 -323 l-2 -304 -118 -5 -119 -5 -90
-97 -90 -98 -110 0 -111 0 -42 -39 c-24 -22 -41 -42 -38 -45 3 -3 -21 -32 -52
-66 -32 -33 -55 -63 -52 -67 10 -10 115 90 114 108 -1 8 15 30 35 48 37 32 39
33 147 34 l110 2 94 93 94 92 126 0 c102 0 129 3 142 16 14 14 16 50 14 291
-1 151 3 279 7 283 5 5 41 10 79 12 99 4 80 23 -23 22 -100 -1 -110 19 -11 24
57 3 78 12 79 35 0 4 -39 7 -86 7 -75 0 -86 -2 -91 -18z"/>
<path d="M4677 3004 c-13 -13 -7 -42 10 -48 18 -7 46 20 40 39 -4 12 -40 19
-50 9z"/>
<path d="M2285 2980 c-4 -6 8 -10 28 -10 20 0 46 -9 61 -21 l26 -20 0 -169 c0
-192 1 -190 -84 -190 -38 0 -52 -6 -84 -34 -20 -19 -48 -36 -62 -38 l-25 -4
28 -14 c26 -13 29 -11 66 28 36 40 41 42 94 42 48 0 58 4 76 26 19 25 21 40
21 186 l0 160 -34 34 c-26 26 -42 34 -69 34 -20 0 -39 -4 -42 -10z"/>
<path d="M2460 2975 c0 -8 5 -15 10 -15 6 0 10 7 10 15 0 8 -4 15 -10 15 -5 0
-10 -7 -10 -15z"/>
<path d="M5098 2974 c-25 -29 -39 -72 -32 -102 7 -29 31 -62 46 -62 11 0 10
38 -2 45 -13 8 -13 68 1 82 6 6 9 21 7 33 -3 22 -3 22 -20 4z"/>
<path d="M210 2970 c0 -5 5 -10 10 -10 6 0 10 5 10 10 0 6 -4 10 -10 10 -5 0
-10 -4 -10 -10z"/>
<path d="M1800 2845 l0 -115 -133 0 c-100 0 -142 4 -164 15 -42 21 -83 6 -83
-30 0 -14 5 -25 12 -25 6 0 8 -3 5 -6 -12 -12 -37 18 -37 43 0 18 9 28 33 38
31 14 31 14 6 15 -49 0 -80 -70 -44 -100 19 -16 102 -6 125 15 13 12 45 15
148 15 l132 0 0 -30 c0 -60 62 -46 80 18 13 44 9 234 -5 239 -6 2 -10 -42 -11
-115 -2 -113 -12 -162 -34 -162 -6 0 -10 60 -10 150 0 93 -4 150 -10 150 -6 0
-10 -45 -10 -115z m-285 -133 c-3 -3 -11 0 -18 7 -9 10 -8 11 6 5 10 -3 15 -9
12 -12z"/>
<path d="M4616 2953 c-3 -3 -1 -12 5 -20 15 -17 83 -17 99 2 10 12 6 13 -23 8
-19 -3 -43 0 -54 6 -11 5 -23 7 -27 4z"/>
<path d="M1365 2938 c-33 -19 -46 -41 -40 -72 4 -22 -1 -36 -17 -53 -12 -13
-25 -23 -29 -23 -4 0 -28 -9 -54 -20 l-47 -20 26 -31 c36 -43 34 -82 -6 -118
-19 -17 -28 -32 -23 -40 5 -9 15 -5 36 15 l29 28 21 -21 c27 -27 20 -48 -36
-114 l-44 -52 -3 -303 -3 -303 -35 -36 c-19 -20 -58 -52 -85 -70 -47 -32 -56
-34 -143 -36 -61 -2 -96 1 -104 9 -7 7 -20 12 -29 12 -50 0 -19 -63 38 -79 21
-6 73 -11 117 -11 l78 0 89 71 c49 39 89 78 89 87 0 11 -15 1 -45 -28 -61 -60
-57 -38 5 28 l50 52 0 291 c0 198 4 297 11 312 7 12 29 41 50 64 46 50 49 81
14 127 -14 18 -25 46 -25 63 0 17 -8 38 -20 48 -28 25 -26 30 23 44 23 7 56
24 73 36 20 15 39 22 52 18 26 -6 72 37 72 67 0 20 -41 70 -57 70 -4 0 -17 -6
-28 -12z m25 -50 c0 7 5 10 10 7 17 -10 11 -32 -10 -38 -23 -6 -34 7 -25 31 5
14 7 14 15 2 7 -11 10 -12 10 -2z m-324 -1213 c-33 -50 -58 -58 -162 -53 -80
4 -99 9 -117 26 -25 26 -15 42 11 19 15 -14 39 -17 118 -17 98 0 101 1 129 30
33 35 45 32 21 -5z"/>
<path d="M420 2920 c14 -11 31 -25 38 -30 8 -7 12 -40 12 -95 0 -50 4 -85 10
-85 6 0 10 36 10 89 0 87 -1 90 -31 115 -17 14 -38 26 -47 26 -13 -1 -11 -5 8
-20z"/>
<path d="M2480 2815 l0 -124 31 -36 c42 -47 40 -74 -10 -132 -52 -62 -98 -97
-136 -103 -35 -6 -57 -49 -39 -78 26 -41 98 -15 92 33 -2 18 16 43 69 98 39
40 75 85 78 100 4 14 4 50 1 79 -4 29 -9 86 -12 126 -3 39 -9 72 -12 72 -12 0
-5 -161 7 -173 6 -6 11 -18 11 -27 0 -10 -11 -4 -30 18 -30 32 -30 33 -30 152
0 73 -4 120 -10 120 -6 0 -10 -48 -10 -125z m-82 -442 c3 -21 -22 -38 -39 -27
-13 8 -11 42 4 47 20 9 32 2 35 -20z"/>
<path d="M3344 2932 c-28 -19 -34 -56 -34 -225 0 -148 2 -177 16 -188 14 -11
19 -10 34 9 21 26 50 29 50 6 0 -13 3 -14 14 -5 11 9 15 51 18 188 3 169 4
176 26 191 27 18 28 32 3 32 -36 0 -51 -27 -51 -91 0 -56 -1 -59 -25 -59 -24
0 -25 2 -25 75 0 73 -4 82 -26 67z m76 -182 c0 -15 -7 -20 -25 -20 -18 0 -25
5 -25 20 0 15 7 20 25 20 18 0 25 -5 25 -20z m0 -65 c0 -20 -5 -25 -25 -25
-20 0 -25 5 -25 25 0 20 5 25 25 25 20 0 25 -5 25 -25z m-5 -75 c0 -29 -4 -36
-22 -38 -21 -3 -23 1 -23 38 0 37 2 41 23 38 18 -2 22 -9 22 -38z"/>
<path d="M657 2923 c-10 -10 -8 -52 3 -74 8 -15 22 -19 60 -19 28 0 50 5 50
10 0 6 -20 10 -44 10 -25 0 -48 5 -51 10 -4 6 15 10 49 10 57 0 71 11 54 43
-7 13 -21 17 -62 17 -29 0 -56 -3 -59 -7z"/>
<path d="M4857 2923 c-15 -15 -5 -23 28 -23 24 0 35 -5 35 -15 0 -10 -10 -15
-27 -15 -35 0 -58 -14 -49 -29 8 -13 73 -5 94 12 15 12 16 49 0 65 -13 13 -70
17 -81 5z"/>
<path d="M4968 2868 l-3 -63 -90 -5 c-86 -5 -90 -6 -103 -32 -21 -45 11 -119
40 -90 21 21 38 13 94 -40 30 -28 56 -49 58 -47 3 2 -20 31 -50 63 -41 43 -59
56 -72 51 -44 -19 -50 -17 -57 15 -11 50 5 59 108 62 l92 3 3 73 c2 43 -1 72
-7 72 -6 0 -11 -28 -13 -62z"/>
<path d="M2310 2905 c0 -9 5 -15 11 -13 6 2 11 8 11 13 0 5 -5 11 -11 13 -6 2
-11 -4 -11 -13z"/>
<path d="M3010 2900 c0 -5 25 -10 55 -10 30 0 55 5 55 10 0 6 -25 10 -55 10
-30 0 -55 -4 -55 -10z"/>
<path d="M830 2845 c0 -10 10 -15 34 -15 43 0 58 -19 54 -67 -3 -36 -4 -38
-38 -37 -19 1 -46 5 -60 8 l-25 8 24 -21 c16 -15 37 -21 67 -21 38 0 46 4 54
24 14 38 1 94 -28 116 -30 24 -82 27 -82 5z"/>
<path d="M3831 2834 c-12 -15 -21 -35 -21 -46 0 -25 44 -68 70 -68 26 0 70 43
70 68 0 33 -38 72 -70 72 -19 0 -36 -9 -49 -26z m67 -56 c-7 -19 -38 -22 -38
-4 0 10 9 16 21 16 12 0 19 -5 17 -12z"/>
<path d="M4071 2847 c-14 -17 -4 -27 25 -27 13 0 39 -18 65 -45 l43 -45 -2
-88 c-1 -48 2 -112 7 -142 7 -47 9 -34 10 83 1 106 4 138 13 135 18 -6 27 -66
27 -180 1 -67 5 -98 13 -98 8 0 9 34 5 125 l-6 124 -84 86 c-46 47 -88 85 -94
85 -6 0 -16 -6 -22 -13z"/>
<path d="M201 2805 c-28 -26 -58 -45 -71 -45 -13 0 -42 -18 -66 -40 -24 -22
-48 -40 -54 -40 -5 0 -10 -9 -10 -20 0 -18 1 -18 29 -2 29 16 31 16 58 -9 15
-14 36 -29 46 -32 21 -8 23 -27 2 -27 -12 0 -14 -10 -9 -53 6 -50 4 -57 -22
-86 -21 -23 -39 -32 -66 -34 -33 -2 -38 -5 -38 -26 0 -21 3 -23 33 -17 69 13
121 74 123 144 1 26 3 49 3 51 1 3 7 -4 15 -15 21 -28 30 -11 13 23 -18 34
-53 72 -87 94 -25 16 -25 17 -6 38 21 23 44 18 25 -5 -6 -8 -9 -17 -6 -20 3
-3 11 2 18 12 8 9 32 34 54 55 l39 38 26 -30 25 -31 28 22 c15 12 27 28 27 37
0 13 3 13 15 3 29 -24 18 -57 -30 -90 -42 -29 -45 -34 -45 -76 0 -38 -5 -51
-30 -74 -28 -26 -30 -32 -26 -86 4 -65 20 -84 72 -84 45 0 64 23 64 75 0 57
-7 73 -40 90 -23 12 -28 21 -28 57 -1 49 2 56 42 84 l29 21 38 -43 c34 -40 37
-47 28 -76 -18 -63 -11 -98 25 -134 29 -29 41 -34 79 -34 30 0 53 7 72 22 26
20 38 22 226 22 162 1 201 4 213 16 33 33 6 38 -212 42 l-212 3 0 -25 c0 -31
-43 -60 -89 -60 -75 0 -112 108 -48 138 24 12 31 11 53 -2 28 -19 33 -63 7
-73 -10 -4 -24 3 -40 21 -24 28 -31 20 -13 -14 30 -56 100 -40 100 23 0 42
-30 71 -86 86 -60 16 -114 78 -114 131 0 35 -5 43 -42 70 -56 41 -80 39 -137
-15z m102 3 c5 -16 -10 -48 -23 -48 -5 0 -16 7 -25 16 -12 12 -13 19 -4 30 14
17 46 18 52 2z m1 -284 c17 -16 21 -80 7 -102 -4 -8 -19 -12 -32 -10 -32 4
-33 42 -1 46 14 2 22 10 22 23 0 18 -4 20 -30 14 -30 -7 -35 -1 -24 29 8 20
38 21 58 0z"/>
<path d="M2315 2840 c-3 -5 -15 -10 -25 -10 -19 0 -70 -54 -69 -73 0 -7 7 -2
16 11 16 22 43 30 43 12 0 -5 5 -10 10 -10 6 0 10 9 10 19 0 11 9 23 20 26 11
3 20 10 20 15 0 14 -18 21 -25 10z"/>
<path d="M3555 2840 c-8 -13 4 -32 16 -25 12 8 12 35 0 35 -6 0 -13 -4 -16
-10z"/>
<path d="M4014 2839 c-3 -6 -2 -15 4 -21 13 -13 32 -2 32 18 0 16 -26 19 -36
3z"/>
<path d="M0 2792 c0 -26 4 -41 10 -37 13 8 13 45 0 65 -7 11 -10 3 -10 -28z"/>
<path d="M3047 2817 c-8 -20 9 -41 27 -34 21 8 21 33 0 41 -21 8 -21 8 -27 -7z"/>
<path d="M4530 2664 c0 -134 2 -153 18 -167 31 -28 70 -22 92 16 29 47 26 88
-10 122 -43 41 -37 69 15 73 35 3 45 -2 80 -38 33 -34 45 -40 79 -40 34 0 47
-7 83 -42 34 -33 43 -49 43 -75 0 -26 5 -36 23 -42 13 -5 32 -22 42 -38 l18
-28 -27 24 c-14 14 -29 22 -32 18 -8 -8 55 -66 84 -78 13 -5 37 -9 53 -9 26 0
29 3 29 34 0 31 -3 34 -36 39 -41 7 -74 32 -74 57 0 9 25 44 56 78 47 52 52
61 29 52 -26 -10 -45 -6 -45 8 0 4 16 17 35 30 19 12 35 27 35 32 0 18 -15 11
-54 -25 -32 -29 -37 -38 -31 -64 5 -25 1 -33 -31 -58 -30 -22 -38 -25 -42 -13
-3 8 -30 41 -61 73 -51 54 -57 58 -91 52 -31 -5 -39 -2 -75 35 -35 36 -44 40
-86 40 -38 0 -51 -5 -63 -22 -22 -30 -21 -32 20 -78 36 -39 37 -42 25 -79 -12
-43 -39 -57 -68 -36 -16 12 -18 28 -15 142 1 75 -2 134 -8 143 -7 10 -10 -30
-10 -136z"/>
<path d="M1043 2780 c-32 -19 -70 -66 -61 -76 3 -2 23 12 44 33 22 21 48 43
59 50 15 9 16 12 5 12 -8 1 -29 -8 -47 -19z"/>
<path d="M3480 2595 c0 -302 -6 -295 255 -295 l181 0 57 58 c55 55 57 60 57
109 0 44 -4 55 -26 72 -15 12 -33 21 -40 21 -23 0 -83 -41 -89 -61 -17 -51 32
-87 68 -50 19 18 20 25 10 52 -11 29 -11 30 15 27 25 -3 27 -7 30 -54 3 -49 2
-52 -48 -98 l-51 -47 -175 3 c-232 4 -214 -17 -214 259 0 179 -2 209 -15 209
-13 0 -15 -29 -15 -205z"/>
<path d="M3095 2780 c-3 -5 -14 -10 -23 -10 -9 -1 -27 -9 -39 -19 -25 -20 -29
-60 -15 -122 6 -29 8 -25 12 36 5 68 6 71 39 87 40 20 61 38 44 38 -7 0 -15
-4 -18 -10z"/>
<path d="M4048 2757 c-18 -43 5 -77 52 -77 42 0 50 -23 50 -142 0 -107 -7
-128 -41 -128 -10 0 -31 -11 -46 -24 -27 -23 -28 -29 -31 -123 l-4 -98 -56
-57 c-31 -32 -64 -58 -74 -58 -25 0 -30 -16 -12 -35 16 -15 21 -12 80 46 83
82 94 107 94 211 0 75 3 87 23 106 13 12 32 22 43 22 38 0 44 19 44 140 0 130
-11 160 -58 160 -38 0 -50 10 -54 45 -2 24 -4 27 -10 12z"/>
<path d="M2254 2747 c-3 -8 -4 -39 -2 -68 l3 -54 55 0 55 0 0 65 0 65 -53 3
c-38 2 -54 -1 -58 -11z m91 -52 c0 -37 -2 -40 -29 -43 -33 -4 -46 10 -46 50 0
29 12 38 50 35 22 -2 25 -7 25 -42z"/>
<path d="M1158 2703 c-24 -29 -29 -41 -19 -48 6 -3 17 8 26 26 19 36 15 47 -7
22z"/>
<path d="M2850 2680 c0 -15 5 -20 18 -18 9 2 17 10 17 18 0 8 -8 16 -17 18
-13 2 -18 -3 -18 -18z"/>
<path d="M4720 2634 c1 -5 18 -28 39 -51 40 -44 70 -54 90 -29 27 32 -33 82
-65 55 -12 -10 -19 -8 -39 11 -14 13 -25 19 -25 14z m108 -57 c2 -11 -3 -17
-17 -17 -23 0 -35 15 -26 31 10 15 39 6 43 -14z"/>
<path d="M0 2595 c0 -8 6 -25 13 -36 10 -17 10 -23 0 -26 -18 -6 -16 -43 2
-43 17 0 35 30 35 61 0 18 2 20 15 9 11 -9 19 -10 27 -2 15 15 0 34 -21 27
-10 -3 -24 1 -31 10 -16 19 -40 19 -40 0z"/>
<path d="M615 2590 c-8 -12 -30 -11 222 -10 l212 1 40 -37 c49 -44 57 -22 9
25 l-32 31 -222 0 c-138 0 -225 -4 -229 -10z"/>
<path d="M3598 2579 c-26 -15 -26 -139 0 -162 24 -22 45 -21 65 1 23 25 21 55
-3 77 -13 12 -20 31 -20 57 0 40 -10 46 -42 27z"/>
<path d="M2204 2566 c-10 -8 -16 -17 -13 -20 3 -3 14 1 25 8 10 8 16 17 13 20
-3 3 -14 -1 -25 -8z"/>
<path d="M1200 2552 c0 -5 7 -13 16 -16 10 -4 14 -1 12 6 -5 15 -28 23 -28 10z"/>
<path d="M5076 2538 c-16 -22 -16 -23 11 -28 33 -6 43 14 20 37 -13 13 -17 12
-31 -9z"/>
<path d="M1037 2465 c-24 -21 -38 -25 -98 -25 -38 0 -69 -3 -69 -7 -1 -35 -18
-38 -237 -43 l-218 -5 -3 -32 c-2 -24 1 -33 12 -33 21 0 30 18 16 35 -11 13
15 15 198 15 210 0 211 0 240 25 25 21 40 25 90 25 44 0 66 5 85 20 63 50 67
29 67 -319 l0 -299 -26 -31 c-26 -31 -61 -43 -51 -18 3 9 -3 12 -22 10 -14 -1
-82 -4 -150 -6 -120 -4 -126 -3 -148 19 -21 21 -23 32 -22 106 1 46 4 72 6 58
18 -96 168 -164 259 -117 62 32 114 112 114 175 0 61 -41 138 -86 162 -12 7
-24 22 -26 34 -4 25 -66 51 -103 42 -14 -4 -29 -15 -33 -26 -4 -10 -23 -29
-42 -42 -71 -48 -99 -115 -107 -255 -7 -116 -1 -136 43 -164 34 -20 44 -21
174 -17 75 3 145 1 153 -4 12 -6 26 0 51 23 l36 31 0 323 0 324 -26 20 c-34
27 -43 26 -77 -4z m-68 -302 c92 -68 95 -191 7 -258 -52 -40 -119 -45 -165
-13 -104 70 -99 213 9 278 43 25 109 22 149 -7z"/>
<path d="M856 2064 c-19 -18 -21 -65 -4 -82 17 -17 64 -15 82 4 22 21 20 50
-4 74 -24 24 -53 26 -74 4z"/>
<path d="M4753 2479 c-12 -4 -24 -16 -27 -27 -20 -63 71 -98 95 -35 17 45 -21
80 -68 62z"/>
<path d="M4638 2474 c-5 -4 -8 -40 -8 -80 0 -92 -11 -119 -66 -170 l-44 -41 0
-104 -1 -104 -80 -69 c-44 -37 -78 -70 -75 -73 3 -3 44 27 91 66 l85 72 0 99
0 100 49 54 c38 42 51 65 56 98 8 54 3 162 -7 152z"/>
<path d="M3017 2434 c-4 -4 -7 -29 -7 -55 0 -73 -14 -79 -182 -79 l-138 0
-103 -102 c-56 -57 -149 -143 -205 -193 -111 -96 -137 -132 -128 -175 9 -47
-12 -95 -59 -139 -40 -37 -50 -41 -94 -41 -27 0 -53 -4 -56 -10 -4 -6 19 -10
61 -10 l67 0 51 52 51 52 4 78 3 77 137 118 c75 65 168 148 207 185 l71 68
141 0 c140 0 142 0 172 28 27 24 31 34 33 86 2 55 -8 77 -26 60z"/>
<path d="M2220 2417 c0 -9 5 -17 10 -17 6 0 10 -7 10 -15 0 -21 -68 -20 -92 2
-18 16 -23 8 -12 -21 8 -20 113 -23 115 -3 3 24 -3 42 -17 57 -12 12 -14 12
-14 -3z"/>
<path d="M1395 2402 c-3 -3 -5 -63 -5 -133 l0 -127 58 -64 c31 -35 76 -78 99
-95 40 -30 48 -32 138 -35 65 -2 95 1 95 8 0 8 -31 11 -95 10 l-94 -1 -91 90
-90 90 0 123 c0 121 0 123 21 117 15 -5 20 -3 17 6 -5 14 -42 21 -53 11z"/>
<path d="M4155 2382 c-16 -2 -36 -8 -42 -14 -15 -12 -17 -115 -3 -152 9 -24
14 -26 71 -26 51 0 68 -5 96 -26 26 -20 33 -32 33 -60 0 -21 4 -33 10 -29 24
15 9 57 -35 97 -43 39 -49 41 -100 39 -50 -2 -55 0 -60 21 -4 14 -5 47 -3 74
l3 49 58 3 57 3 0 -36 c0 -19 5 -35 10 -35 14 0 13 77 -2 86 -13 8 -49 11 -93
6z"/>
<path d="M920 2355 c0 -8 5 -15 10 -15 6 0 10 7 10 15 0 8 -4 15 -10 15 -5 0
-10 -7 -10 -15z"/>
<path d="M870 2343 c0 -5 -84 -7 -187 -5 -124 2 -190 -1 -197 -8 -8 -8 47 -10
193 -10 204 2 236 4 225 21 -6 11 -34 12 -34 2z"/>
<path d="M0 2325 c0 -8 20 -26 44 -40 23 -14 52 -35 62 -48 16 -19 15 -19 -10
3 l-30 25 22 -29 c20 -26 22 -40 22 -172 0 -142 0 -144 -25 -160 -17 -11 -36
-14 -56 -10 -22 4 -29 2 -27 -7 8 -22 72 -20 102 4 l27 21 -3 149 c-2 117 0
146 9 133 16 -21 26 -127 21 -214 -3 -60 -8 -74 -31 -98 -23 -22 -36 -27 -77
-27 -56 0 -70 -21 -17 -26 51 -6 81 0 110 24 36 29 46 75 47 212 0 122 -2 127
-74 203 -58 62 -116 90 -116 57z"/>
<path d="M3100 2293 c-25 -24 -55 -49 -68 -54 -13 -5 -69 -9 -124 -9 -97 0
-101 -1 -134 -30 -20 -17 -40 -27 -49 -24 -8 4 -15 1 -15 -5 0 -20 48 -11 78
14 28 23 37 25 141 25 l111 0 57 52 c64 57 81 78 61 77 -7 0 -33 -21 -58 -46z"/>
<path d="M4147 2303 c-22 -21 12 -73 47 -73 21 0 30 23 22 55 -5 19 -13 25
-35 25 -15 0 -31 -3 -34 -7z"/>
<path d="M4652 2237 l-72 -72 0 -159 0 -158 75 -72 75 -72 0 -68 c0 -61 3 -70
29 -97 29 -28 32 -29 129 -29 54 0 102 3 106 7 4 5 34 6 67 5 40 -3 59 0 59 8
0 8 -42 9 -159 4 l-159 -7 -26 26 c-23 23 -26 34 -26 94 l0 68 -72 69 -73 70
0 55 c0 54 1 55 29 56 16 0 31 6 33 13 3 8 -7 12 -31 12 l-36 0 0 78 1 77 69
73 69 72 162 0 161 0 29 -31 c26 -28 29 -29 29 -10 0 12 -9 30 -20 41 -18 18
-33 20 -198 20 l-178 0 -72 -73z"/>
<path d="M1685 2288 c-31 -18 -44 -40 -45 -75 0 -43 30 -73 73 -73 67 0 100
74 55 124 -28 30 -57 39 -83 24z"/>
<path d="M223 2278 c-4 -7 -6 -110 -4 -228 l3 -216 -26 -32 c-30 -35 -78 -52
-148 -52 -27 0 -48 -4 -48 -10 0 -6 33 -10 80 -10 80 0 81 0 123 39 l42 40 3
185 c2 107 7 186 13 186 5 0 9 -72 9 -174 0 -106 4 -177 10 -181 7 -4 10 56
10 173 0 147 3 182 15 192 17 14 20 53 5 81 -12 22 -74 27 -87 7z m65 -37 c5
-32 -13 -48 -33 -31 -18 15 -20 46 -2 53 20 9 32 2 35 -22z"/>
<path d="M654 2259 c-3 -6 -2 -15 4 -21 13 -13 32 -2 32 18 0 16 -26 19 -36 3z"/>
<path d="M4269 2229 c19 -16 36 -28 39 -25 8 9 -27 43 -50 50 -17 4 -15 -1 11
-25z"/>
<path d="M433 2210 l-30 -31 -7 -204 c-5 -152 -4 -210 5 -227 6 -13 42 -55 79
-94 88 -93 92 -107 47 -152 -34 -33 -37 -34 -66 -22 -24 10 -37 10 -60 0 -26
-10 -33 -9 -74 23 -44 33 -44 34 -27 57 17 22 16 24 -3 46 -21 24 -61 32 -72
14 -3 -5 -37 -10 -76 -10 -55 0 -69 -3 -69 -15 0 -12 14 -15 65 -15 53 0 66
-3 75 -19 5 -11 20 -23 32 -26 35 -11 96 -75 109 -114 7 -20 22 -49 35 -64 23
-27 24 -35 24 -191 l0 -162 -65 -64 -65 -64 0 -134 0 -133 43 -47 c24 -26 55
-64 69 -84 14 -21 28 -35 31 -32 9 9 -17 55 -43 79 -13 11 -36 40 -52 64 -27
43 -28 50 -28 161 0 83 4 122 14 135 12 17 14 1 18 -123 2 -94 8 -146 16 -154
9 -9 12 20 12 143 l0 155 60 70 c66 75 63 67 60 224 -1 77 1 87 22 106 13 12
30 24 38 27 9 3 5 6 -10 6 -14 1 -36 -6 -48 -15 -21 -14 -22 -23 -22 -133 0
-88 -4 -122 -15 -137 -13 -17 -14 -4 -15 121 0 139 0 140 30 185 16 25 30 55
30 67 0 13 15 36 35 54 19 18 37 40 40 50 9 27 -20 74 -91 150 l-64 68 0 207
0 207 26 34 c34 44 25 52 -13 13z m25 -788 c-5 -24 -52 -23 -56 2 -2 10 2 22
9 27 18 11 51 -9 47 -29z"/>
<path d="M2746 2231 c-4 -7 -5 -15 -2 -18 9 -9 19 4 14 18 -4 11 -6 11 -12 0z"/>
<path d="M3592 2224 c-41 -21 -69 -56 -83 -105 -18 -57 9 -121 68 -162 31 -22
42 -36 37 -47 -4 -8 -9 -45 -12 -82 -4 -67 -4 -68 24 -79 16 -6 47 -8 68 -6
33 5 54 20 135 100 146 142 135 137 262 137 105 0 109 1 125 25 9 14 15 27 13
28 -2 1 -58 1 -124 -1 l-121 -3 -142 -130 c-114 -103 -148 -129 -172 -129 -16
0 -32 6 -36 12 -10 16 -6 73 7 116 9 27 15 32 41 32 67 0 138 77 138 150 0
112 -130 194 -228 144z m142 -35 c80 -63 70 -187 -19 -225 -48 -20 -77 -18
-116 9 -78 52 -88 140 -24 204 28 28 40 33 83 33 35 0 57 -6 76 -21z"/>
<path d="M3621 2113 c-33 -41 -10 -93 40 -93 34 0 69 31 69 60 0 27 -35 60
-64 60 -15 0 -33 -11 -45 -27z m74 -32 c0 -34 -30 -51 -51 -29 -25 24 -10 60
24 56 21 -2 27 -8 27 -27z"/>
<path d="M4410 2160 c-4 -124 -5 -128 -25 -149 -10 -12 -14 -21 -8 -21 12 0
43 33 43 45 0 5 8 17 18 28 16 19 16 20 0 14 -25 -9 -23 20 2 35 25 16 26 26
3 24 -14 -1 -19 10 -24 49 -6 48 -6 46 -9 -25z"/>
<path d="M466 2179 l-27 -32 3 -193 3 -194 92 -92 c50 -51 100 -111 111 -134
11 -22 28 -47 38 -55 16 -13 16 -12 1 18 -10 18 -17 40 -17 49 0 10 -38 57
-85 105 l-85 86 0 179 c0 99 4 184 8 191 4 6 31 15 60 19 29 4 55 11 58 15 7
11 4 11 -73 -2 -52 -9 -64 -15 -69 -33 -3 -12 -4 -97 -2 -189 3 -140 1 -165
-10 -150 -10 14 -13 61 -10 199 4 228 3 226 123 223 44 -1 82 2 85 7 3 5 -36
10 -86 12 l-92 3 -26 -32z"/>
<path d="M4749 2161 l-49 -48 0 -97 c0 -105 14 -157 48 -175 13 -7 90 -11 196
-11 150 0 176 2 176 15 0 13 -26 15 -178 15 -222 0 -212 -7 -212 142 l0 106
40 36 c36 33 45 36 98 36 54 0 61 -3 95 -37 48 -47 51 -96 9 -136 -24 -23 -36
-27 -90 -27 -57 0 -62 -2 -62 -22 0 -17 3 -19 12 -10 7 7 39 12 74 12 58 0 64
2 93 35 53 60 37 140 -36 190 -31 20 -50 25 -102 25 -63 0 -64 -1 -112 -49z"/>
<path d="M3104 2131 c-54 -33 -65 -80 -60 -253 4 -148 5 -151 32 -179 28 -29
29 -29 146 -29 l118 0 40 37 c23 20 45 44 50 54 13 24 20 284 8 325 -15 56
-37 64 -178 64 -105 0 -130 -3 -156 -19z m295 -37 c19 -24 21 -40 21 -167 l0
-140 -44 -43 -43 -44 -111 0 c-108 0 -111 1 -131 26 -19 24 -21 40 -21 171 0
150 9 190 47 212 10 6 73 11 140 11 120 0 122 0 142 -26z"/>
<path d="M3224 2038 c3 -13 6 -37 6 -54 0 -27 4 -32 29 -37 20 -4 33 -16 45
-40 22 -48 20 -62 -11 -97 -26 -27 -35 -30 -107 -35 -85 -6 -99 -11 -76 -25
20 -13 96 -12 142 0 86 24 119 131 59 191 -16 16 -37 29 -45 29 -12 0 -16 11
-16 45 0 35 -4 45 -16 45 -12 0 -15 -6 -10 -22z"/>
<path d="M3149 1941 c-33 -34 -39 -83 -13 -119 22 -32 37 -27 19 8 -22 43 -19
68 15 102 17 16 30 31 30 34 0 13 -25 0 -51 -25z"/>
<path d="M3200 1902 c0 -19 12 -42 22 -42 14 0 5 43 -9 48 -7 2 -13 -1 -13 -6z"/>
<path d="M1330 2129 c0 -24 87 -99 114 -99 18 0 2 19 -24 30 -17 7 -44 29 -60
49 -18 21 -30 29 -30 20z"/>
<path d="M4820 2130 c0 -5 19 -10 42 -10 28 0 49 -7 64 -21 28 -26 40 -9 13
19 -15 17 -31 22 -69 22 -28 0 -50 -4 -50 -10z"/>
<path d="M2712 2123 c-28 -5 -24 -27 6 -31 17 -3 22 2 22 17 0 12 -1 20 -2 20
-2 -1 -13 -4 -26 -6z"/>
<path d="M2775 2090 c-7 -12 2 -30 16 -30 12 0 12 27 0 35 -5 3 -12 1 -16 -5z"/>
<path d="M2248 2003 c-75 -75 -115 -97 -63 -34 15 17 25 36 23 43 -2 6 -19 -7
-38 -30 -23 -29 -41 -42 -58 -42 -17 0 -43 -18 -81 -57 -31 -32 -65 -63 -76
-70 -19 -11 -19 -12 5 -12 17 -1 42 16 80 53 46 46 62 56 99 60 40 4 53 13
125 85 45 45 76 81 71 81 -6 0 -45 -35 -87 -77z"/>
<path d="M2573 2025 c-46 -20 -121 -92 -145 -140 -12 -22 -29 -51 -39 -64 -18
-22 -19 -47 -19 -365 l0 -341 -97 -97 -98 -96 -92 -4 c-127 -4 -127 -4 -131
-168 l-4 -130 30 -30 c30 -29 33 -30 129 -30 79 0 107 -4 138 -20 63 -32 102
-23 130 30 19 37 11 74 -22 100 -40 31 -80 26 -119 -16 -19 -19 -34 -42 -34
-50 0 -11 -19 -14 -94 -14 -124 0 -126 3 -126 155 0 73 4 115 12 123 7 7 44
12 97 12 l85 0 113 113 113 113 2 234 c4 496 4 500 29 485 12 -8 12 -352 -1
-360 -6 -4 -10 -57 -10 -126 0 -163 -4 -159 178 -159 186 0 382 11 382 22 0 4
-12 8 -27 8 -27 0 -27 1 20 41 53 46 142 157 133 166 -3 4 -23 -13 -43 -38
-20 -24 -63 -70 -94 -101 l-58 -58 -215 0 c-180 0 -215 2 -220 15 -3 8 -8 146
-12 307 -4 162 -11 298 -16 305 -23 29 84 144 151 163 111 31 201 -9 272 -119
17 -27 29 -38 29 -27 0 46 -78 134 -142 161 -46 19 -142 19 -185 0z m-231
-1382 c10 -9 18 -27 18 -40 0 -23 -31 -63 -50 -63 -17 0 -11 14 10 28 22 14
26 42 8 60 -19 19 -46 14 -64 -13 -16 -24 -16 -27 1 -45 10 -11 16 -22 14 -25
-6 -5 -20 5 -42 31 -17 21 -17 22 8 53 30 35 68 41 97 14z"/>
<path d="M1980 1990 c0 -5 5 -10 10 -10 6 0 10 5 10 10 0 6 -4 10 -10 10 -5 0
-10 -4 -10 -10z"/>
<path d="M2605 1988 c-40 -14 -84 -56 -101 -95 -20 -47 -18 -180 4 -222 29
-59 83 -94 151 -99 71 -5 115 13 165 68 79 87 74 205 -13 291 -62 63 -133 82
-206 57z m108 -19 c44 -12 102 -59 124 -103 9 -18 16 -55 16 -88 0 -110 -81
-184 -193 -176 -106 8 -150 63 -150 190 0 93 20 135 80 166 50 25 68 27 123
11z"/>
<path d="M2632 1854 c-33 -23 -18 -33 30 -22 35 7 46 6 67 -10 36 -27 41 -84
9 -106 -26 -18 -80 -21 -109 -6 -27 15 -25 -5 3 -24 62 -44 157 7 158 83 0 46
-54 101 -102 101 -18 0 -44 -7 -56 -16z"/>
<path d="M1473 1963 c-14 -5 -18 -32 -5 -34 27 -5 92 -4 92 1 0 4 -8 14 -18
23 -18 17 -45 20 -69 10z"/>
<path d="M1988 1910 c-82 -87 -92 -90 -328 -90 l-201 0 -61 -57 c-73 -70 -83
-87 -63 -103 13 -11 14 -10 10 2 -4 9 18 37 59 76 l64 62 207 0 c204 0 207 0
251 26 41 24 134 119 134 136 0 18 -18 5 -72 -52z"/>
<path d="M5010 1960 c0 -5 25 -10 55 -10 30 0 55 5 55 10 0 6 -25 10 -55 10
-30 0 -55 -4 -55 -10z"/>
<path d="M4630 1905 c0 -42 5 -49 64 -110 l64 -65 181 0 c114 0 181 4 181 10
0 6 -62 10 -166 10 -190 0 -202 4 -268 84 -26 33 -36 54 -36 80 0 20 -4 36
-10 36 -5 0 -10 -20 -10 -45z"/>
<path d="M320 1925 c0 -8 7 -15 15 -15 8 0 15 7 15 15 0 8 -7 15 -15 15 -8 0
-15 -7 -15 -15z"/>
<path d="M4167 1913 c-25 -25 -35 -28 -127 -33 l-101 -5 -49 -55 c-44 -49 -49
-60 -50 -102 0 -36 4 -48 15 -48 11 0 15 12 15 48 0 44 4 52 48 95 l48 47 85
0 c73 0 91 3 120 23 19 12 35 30 37 40 5 25 -9 21 -41 -10z"/>
<path d="M4483 1865 c-75 -71 -56 -71 22 0 33 30 55 55 48 55 -7 0 -38 -25
-70 -55z"/>
<path d="M4829 1907 c11 -14 34 -17 152 -17 86 0 139 4 139 10 0 6 -51 10
-134 10 -74 0 -143 3 -153 7 -16 6 -16 5 -4 -10z"/>
<path d="M1590 1901 c0 -8 188 -21 199 -15 1 2 0 7 -4 13 -8 13 -195 15 -195
2z"/>
<path d="M4219 1881 c-21 -17 -22 -22 -11 -45 16 -35 38 -42 62 -21 25 23 26
61 1 75 -25 13 -25 13 -52 -9z"/>
<path d="M2072 1825 l-60 -55 -267 0 -267 0 -61 -59 c-34 -33 -58 -63 -54 -67
4 -4 34 19 67 50 l61 58 309 -3 c243 -3 310 -1 310 9 0 7 -13 12 -32 12 l-33
1 48 44 c27 25 55 45 63 45 8 0 14 5 14 10 0 25 -44 5 -98 -45z"/>
<path d="M3507 1832 c-21 -22 -21 -42 -4 -67 21 -28 64 -13 72 25 12 53 -33
80 -68 42z"/>
<path d="M265 1790 c-8 -13 4 -32 16 -25 12 8 12 35 0 35 -6 0 -13 -4 -16 -10z"/>
<path d="M3987 1732 c-26 -27 -47 -57 -47 -69 0 -13 -16 -36 -40 -56 -22 -19
-40 -39 -40 -45 0 -7 29 -40 64 -75 60 -61 63 -66 68 -121 4 -49 10 -62 41
-94 27 -27 37 -47 37 -69 0 -41 -9 -63 -25 -63 -18 0 -26 -15 -19 -34 9 -23
16 -20 42 17 15 23 22 48 22 81 0 42 -4 51 -37 81 -31 28 -37 40 -36 72 1 44
-9 67 -50 110 -27 28 -29 35 -19 60 6 15 12 56 14 91 4 57 8 66 43 102 36 37
44 40 91 40 29 0 63 -4 76 -9 13 -5 65 -48 116 -95 50 -47 97 -86 102 -86 18
0 11 -25 -11 -38 -16 -10 -18 -17 -10 -25 8 -8 18 -4 38 15 l27 27 -108 103
c-60 57 -118 108 -130 115 -11 7 -53 12 -91 13 l-71 0 -47 -48z m-51 -167 c-7
-37 -25 -45 -47 -19 -11 13 -8 19 17 39 16 13 31 22 33 20 2 -2 0 -20 -3 -40z"/>
<path d="M3890 1721 c0 -28 5 -51 10 -51 6 0 10 20 10 44 0 25 -4 48 -10 51
-6 4 -10 -13 -10 -44z"/>
<path d="M4431 1714 c-28 -35 -26 -69 4 -99 30 -31 57 -32 89 -2 36 32 42 67
16 100 -29 37 -80 37 -109 1z m87 -6 c19 -19 14 -65 -9 -81 -26 -19 -58 -10
-71 19 -22 47 44 98 80 62z"/>
<path d="M4475 1679 c-4 -6 -3 -15 3 -21 6 -6 11 -4 15 6 7 18 -9 31 -18 15z"/>
<path d="M2060 1720 c-25 -4 -59 -5 -76 -3 -24 4 -38 -1 -66 -26 l-36 -31
-145 0 c-163 0 -144 8 -243 -99 l-59 -63 -6 -104 c-3 -57 -9 -107 -12 -111
-15 -14 -21 11 -24 108 l-4 102 98 98 99 99 120 1 c65 1 129 0 142 -1 15 -1
22 4 22 15 0 16 -13 17 -142 10 -79 -4 -150 -11 -158 -15 -8 -5 -57 -51 -107
-103 l-93 -94 0 -84 c-1 -58 -5 -90 -15 -103 -22 -29 -21 -179 1 -201 29 -29
49 -15 52 38 3 39 6 47 23 47 18 0 19 8 19 136 l0 136 76 84 76 84 150 0 150
0 28 30 c30 32 73 40 112 19 29 -15 90 -3 86 18 -4 21 -12 22 -68 13z"/>
<path d="M4045 1689 c-25 -23 -45 -46 -45 -52 0 -6 19 8 43 31 34 33 50 42 78
42 30 0 45 -10 109 -75 40 -40 77 -72 82 -69 4 3 8 -4 8 -14 0 -20 23 -36 34
-25 14 14 4 34 -20 43 -14 6 -61 44 -104 85 -97 92 -118 96 -185 34z"/>
<path d="M4570 1653 c3 -45 9 -68 18 -68 6 0 11 5 10 10 -2 6 -6 9 -10 8 -5
-2 -8 24 -8 57 0 33 -3 60 -7 60 -5 0 -6 -30 -3 -67z"/>
<path d="M2970 1567 c0 -117 -2 -136 -18 -150 -16 -15 -46 -17 -213 -17 -182
0 -238 -7 -214 -27 6 -5 104 -6 218 -3 l209 5 24 28 c24 28 24 33 22 160 -2
93 -7 132 -15 135 -10 3 -13 -28 -13 -131z"/>
<path d="M2216 1650 c-26 -22 -53 -40 -59 -40 -7 -1 -125 -1 -264 0 l-252 1
-86 -82 -85 -83 0 -157 c0 -95 4 -160 10 -164 6 -4 10 33 10 102 0 72 4 113
12 121 7 7 29 12 50 12 31 0 38 4 38 19 0 10 -6 24 -14 30 -11 10 -5 20 37 61
70 66 54 74 -20 10 -32 -28 -64 -55 -70 -61 -7 -5 -13 -19 -13 -30 0 -11 -4
-18 -8 -15 -16 9 0 66 21 78 11 6 42 30 67 54 l46 43 267 3 266 3 46 45 c75
74 76 116 1 50z"/>
<path d="M3460 1670 c0 -6 55 -10 145 -10 90 0 145 4 145 10 0 6 -55 10 -145
10 -90 0 -145 -4 -145 -10z"/>
<path d="M1320 1629 c0 -7 -11 -9 -27 -6 -24 4 -39 -6 -108 -74 l-81 -79 -102
0 c-56 0 -104 -4 -107 -10 -4 -6 34 -10 108 -10 l114 0 71 74 c40 41 72 71 72
67 0 -19 -64 -112 -99 -144 l-41 -37 -156 0 -156 0 -42 -42 c-24 -24 -36 -43
-29 -45 7 -3 28 12 48 31 35 36 36 36 121 36 l86 0 -17 -27 c-25 -41 -45 -53
-82 -53 -18 0 -33 -4 -33 -10 0 -17 63 -11 96 9 18 11 40 33 50 50 17 29 22
31 74 31 55 0 57 1 112 58 31 31 59 67 62 78 5 17 14 22 37 20 42 -2 77 41 60
73 -12 22 -31 28 -31 10z"/>
<path d="M4914 1616 c-12 -47 31 -77 67 -47 19 15 34 18 81 13 49 -4 58 -2 58
12 0 13 -11 16 -64 16 -48 0 -65 4 -70 15 -3 9 -18 15 -35 15 -24 0 -32 -5
-37 -24z"/>
<path d="M3204 1576 l-44 -43 0 -85 c0 -63 4 -89 15 -98 41 -34 75 28 35 65
-15 13 -20 30 -20 65 0 39 5 51 33 78 l33 32 236 0 236 0 101 -92 c56 -51 109
-104 118 -118 15 -22 18 -68 21 -387 3 -200 8 -363 13 -363 5 0 9 122 9 273 0
234 2 276 16 295 15 22 15 25 -5 46 -17 18 -21 35 -21 82 l0 59 -120 118 -121
117 -246 0 -246 0 -43 -44z"/>
<path d="M4800 1606 c0 -12 11 -16 46 -16 59 0 55 24 -4 28 -33 2 -42 0 -42
-12z"/>
<path d="M382 1585 c-37 -16 -38 -38 -4 -43 16 -3 22 2 22 15 0 11 5 24 12 31
15 15 11 15 -30 -3z"/>
<path d="M0 1579 c0 -5 5 -7 10 -4 5 3 10 8 10 11 0 2 -4 4 -10 4 -5 0 -10 -5
-10 -11z"/>
<path d="M3478 1552 c-167 -2 -167 -3 -187 -29 -22 -26 -27 -58 -13 -67 5 -3
17 9 27 27 10 18 23 35 29 39 6 4 83 8 171 8 l160 0 103 -96 102 -96 0 -338
c0 -327 1 -338 21 -364 27 -35 70 -56 112 -56 18 0 38 -5 45 -12 7 -7 12 -8
12 -2 0 20 -25 34 -63 34 -31 0 -46 7 -73 34 l-34 34 0 337 c0 306 -2 339 -17
359 -39 48 -189 184 -208 187 -11 2 -95 3 -187 1z"/>
<path d="M4065 1536 c-20 -30 -15 -49 19 -71 44 -29 96 18 73 66 -18 36 -70
39 -92 5z"/>
<path d="M2867 1522 c-20 -22 -22 -63 -5 -80 30 -30 98 -1 98 41 0 23 -35 57
-58 57 -11 0 -26 -8 -35 -18z"/>
<path d="M4545 1496 c-74 -32 -79 -140 -10 -194 33 -26 65 -28 105 -7 80 42
77 166 -5 201 -41 17 -51 17 -90 0z m75 -71 c20 -24 3 -57 -28 -53 -27 3 -39
26 -28 54 7 18 40 18 56 -1z"/>
<path d="M4296 1469 c-30 -36 -33 -74 -9 -109 15 -20 17 -42 14 -116 -3 -89
-2 -92 24 -113 20 -15 42 -21 80 -21 47 0 56 -4 79 -31 25 -30 26 -35 26 -168
l0 -138 -51 -79 c-74 -113 -79 -129 -79 -247 l0 -104 -76 -64 c-88 -74 -94
-83 -94 -143 0 -25 -4 -46 -10 -46 -5 0 -10 24 -10 53 l0 52 84 80 84 80 4
119 c4 100 2 115 -9 100 -9 -12 -13 -50 -13 -115 l0 -97 -94 -82 c-103 -90
-106 -96 -106 -217 0 -49 3 -63 15 -63 11 0 15 11 15 38 l1 37 19 -24 c11 -13
20 -29 20 -37 0 -8 7 -14 15 -14 12 0 15 13 15 55 0 52 2 56 37 80 46 30 57
31 84 4 29 -29 38 -14 9 16 -18 20 -21 28 -12 37 7 7 12 18 12 25 0 7 -20 -2
-46 -22 -59 -45 -82 -57 -88 -47 -12 20 11 53 83 120 l78 71 5 108 c5 119 9
129 87 247 l46 69 3 120 c5 150 0 174 -42 220 -32 35 -37 37 -99 37 -75 0 -78
3 -76 83 2 83 10 102 47 105 29 3 33 0 38 -27 9 -44 24 -38 24 9 l0 40 -43 0
c-33 0 -49 6 -65 23 -29 31 -28 59 4 96 19 23 22 31 11 31 -8 0 -27 -14 -41
-31z"/>
<path d="M4176 1483 c-11 -11 -6 -23 9 -23 8 0 15 4 15 9 0 13 -16 22 -24 14z"/>
<path d="M560 1476 c0 -3 7 -12 16 -20 18 -18 134 -23 134 -6 0 6 -26 10 -59
10 -33 0 -63 5 -66 10 -6 10 -25 14 -25 6z"/>
<path d="M3342 1468 c-7 -7 -12 -18 -12 -25 0 -15 26 -18 35 -3 4 6 68 10 158
10 l152 0 60 -54 60 -53 3 -372 3 -372 57 -60 c56 -57 59 -59 111 -59 45 0 56
-4 73 -25 18 -23 26 -25 100 -25 74 0 83 2 118 30 46 36 51 56 57 242 l4 136
35 27 34 26 0 -100 c0 -61 4 -101 10 -101 6 0 10 42 10 106 0 104 1 107 30
141 33 37 39 68 14 77 -24 9 -25 8 -12 -14 11 -16 10 -23 -5 -37 -16 -16 -18
-16 -34 7 -10 14 -35 44 -57 68 -34 37 -44 42 -78 40 -21 -1 -44 4 -51 11 -7
7 -13 47 -16 98 -4 99 4 103 57 34 23 -31 32 -37 32 -23 0 10 -13 32 -30 48
-16 16 -30 39 -30 52 0 27 -11 28 -33 4 -13 -15 -17 -39 -17 -116 l0 -98 39
-39 c36 -36 42 -39 78 -33 36 5 41 3 66 -29 15 -20 27 -40 27 -46 0 -5 -21
-28 -47 -50 l-48 -41 -2 -132 c-3 -157 -8 -182 -40 -226 -23 -31 -26 -32 -102
-32 -70 0 -80 2 -101 25 -20 21 -33 25 -80 25 -55 0 -59 2 -98 44 -22 24 -45
53 -51 65 -8 15 -11 127 -11 378 l1 358 -64 62 -65 63 -164 0 c-114 0 -168 -4
-176 -12z"/>
<path d="M148 1443 c-42 -3 -58 -8 -58 -18 0 -12 16 -15 71 -15 60 0 70 2 67
17 -4 19 -6 20 -80 16z"/>
<path d="M262 1428 c-16 -40 -41 -48 -156 -48 -64 0 -106 -4 -106 -10 0 -13
199 -14 232 -1 26 10 53 52 45 73 -3 8 -9 3 -15 -14z"/>
<path d="M2166 1434 c-9 -24 -7 -28 9 -14 17 14 20 30 6 30 -5 0 -12 -7 -15
-16z"/>
<path d="M1885 1368 c-55 -60 -72 -72 -98 -73 -31 0 -32 -2 -37 -47 -4 -29
-14 -56 -28 -71 -30 -32 -28 -71 4 -96 34 -27 66 -27 90 0 16 18 18 34 16 107
l-3 87 71 73 c38 40 70 78 70 83 0 21 -22 5 -85 -63z m-80 -179 c5 -66 4 -85
-8 -96 -13 -13 -19 -13 -43 -1 -34 16 -35 50 -5 83 11 11 22 37 26 58 11 59
22 43 30 -44z"/>
<path d="M1753 1153 c-18 -6 -16 -42 2 -49 16 -6 45 12 45 27 0 12 -33 27 -47
22z"/>
<path d="M1673 1357 l-68 -66 -3 -105 -4 -105 76 -80 76 -80 0 -75 0 -76 58 0
c73 0 92 17 92 82 0 48 13 70 79 141 l35 37 98 0 c80 0 98 3 98 15 0 12 -17
15 -91 15 -50 0 -100 -5 -112 -11 -12 -6 -45 -36 -73 -67 l-51 -56 -59 3 c-59
3 -59 3 -129 74 l-70 72 0 102 0 102 55 56 c53 54 55 55 112 55 32 0 58 4 58
10 0 6 -18 10 -39 10 -22 0 -46 3 -55 6 -11 4 -38 -15 -83 -59z m130 -512 c-7
-43 9 -46 49 -8 26 24 28 25 28 7 0 -31 -20 -44 -67 -44 -39 0 -43 2 -43 24 0
21 22 56 35 56 2 0 1 -16 -2 -35z"/>
<path d="M2077 1400 c-4 -17 -12 -20 -44 -19 -22 2 -44 -1 -51 -5 -8 -5 -12
-41 -12 -110 0 -94 2 -104 23 -124 27 -26 97 -30 120 -8 20 20 107 162 107
174 0 14 -109 112 -125 112 -7 0 -15 -9 -18 -20z m17 -91 c32 -25 33 -49 2
-78 -37 -35 -60 -25 -64 28 -6 75 12 89 62 50z"/>
<path d="M3405 1400 c-24 -26 -13 -37 17 -16 17 12 48 16 130 16 l108 0 45
-41 45 -41 2 -517 3 -516 23 -3 c13 -2 33 3 45 11 15 10 46 14 96 13 106 -2
111 -10 111 -177 0 -71 4 -129 9 -129 4 0 11 57 14 128 4 98 2 132 -8 148 -30
47 -44 54 -111 54 -36 0 -64 4 -64 10 0 17 -20 11 -48 -15 -15 -14 -31 -24
-37 -22 -6 2 -11 182 -13 514 l-2 510 -50 47 -49 46 -124 0 c-111 0 -126 -2
-142 -20z"/>
<path d="M4736 1403 c-3 -4 8 -12 26 -17 46 -16 66 -54 48 -95 -9 -23 -21 -34
-41 -38 -33 -6 -39 -23 -8 -23 11 0 34 14 51 30 29 29 33 30 123 30 73 0 95 3
106 16 24 29 -14 44 -112 44 -84 0 -89 1 -117 30 -29 29 -60 38 -76 23z m279
-83 c4 -6 -27 -10 -84 -10 -54 0 -91 4 -91 10 0 6 35 10 84 10 47 0 88 -4 91
-10z"/>
<path d="M610 1370 c-25 -25 -26 -52 -2 -73 14 -13 38 -17 93 -17 71 0 77 -2
107 -31 l32 -31 0 -192 0 -192 43 -42 43 -42 127 0 c78 0 127 4 127 10 0 6
-49 10 -126 10 l-127 0 -33 36 -34 35 0 196 0 195 -34 34 c-31 31 -39 34 -91
34 -55 0 -57 1 -51 23 6 27 -17 67 -40 67 -8 0 -23 -9 -34 -20z"/>
<path d="M5075 1340 c3 -5 12 -10 20 -10 8 0 17 5 20 10 4 6 -5 10 -20 10 -15
0 -24 -4 -20 -10z"/>
<path d="M3830 990 l0 -351 51 -55 c51 -53 53 -54 110 -54 48 0 61 -4 71 -20
13 -20 38 -28 38 -11 0 25 -54 51 -106 51 -50 0 -57 3 -99 43 l-45 44 0 346
c0 220 -4 348 -10 352 -7 4 -10 -113 -10 -345z"/>
<path d="M2586 1315 c-9 -9 -16 -20 -16 -25 0 -15 32 -41 48 -38 24 5 39 35
26 56 -15 23 -38 26 -58 7z"/>
<path d="M4705 1310 c-4 -7 -1 -16 6 -21 17 -10 26 8 11 23 -6 6 -12 6 -17 -2z"/>
<path d="M515 1279 c-10 -31 -1 -32 25 -4 23 25 23 25 2 25 -12 0 -23 -8 -27
-21z"/>
<path d="M3264 1278 c-59 -44 -112 -101 -107 -114 9 -23 27 -16 68 27 67 69
81 75 178 69 l86 -5 85 -84 86 -83 0 -99 c0 -81 3 -99 15 -99 13 0 15 27 15
180 0 153 -2 180 -15 180 -12 0 -15 -14 -15 -62 l0 -63 -77 77 c-43 42 -91 82
-106 87 -16 6 -63 11 -106 11 -65 0 -83 -4 -107 -22z"/>
<path d="M5070 1284 c0 -8 11 -14 25 -14 14 0 25 4 25 9 0 5 -11 11 -25 13
-17 4 -25 1 -25 -8z"/>
<path d="M1116 1277 c-13 -9 -17 -23 -14 -52 l3 -40 45 0 45 0 3 44 c3 47 -7
61 -44 61 -11 0 -28 -6 -38 -13z m62 -44 c-3 -31 -34 -44 -44 -19 -9 24 3 46
26 46 17 0 21 -5 18 -27z"/>
<path d="M2260 1277 c0 -8 6 -17 13 -20 8 -3 6 -9 -7 -19 -14 -11 -16 -17 -6
-23 27 -16 41 44 15 65 -12 10 -15 10 -15 -3z"/>
<path d="M4120 1190 c0 -47 4 -80 10 -80 6 0 10 33 10 80 0 47 -4 80 -10 80
-6 0 -10 -33 -10 -80z"/>
<path d="M4985 1260 l-50 -7 58 -1 c32 -1 57 2 57 8 0 6 -3 9 -7 8 -5 0 -30
-4 -58 -8z"/>
<path d="M32 1248 c3 -9 35 -14 104 -16 95 -2 154 -17 170 -43 10 -16 -4 -55
-32 -88 l-26 -31 -124 0 c-117 0 -124 -1 -124 -20 0 -19 7 -20 135 -20 l134 0
35 31 c60 52 58 135 -4 179 -24 17 -45 20 -150 20 -93 0 -121 -3 -118 -12z"/>
<path d="M4347 1254 c-14 -14 -7 -54 12 -64 11 -5 42 -10 70 -10 46 0 52 -3
86 -42 58 -67 65 -92 65 -236 0 -128 0 -128 -32 -176 -18 -27 -41 -62 -50 -78
-9 -17 -26 -40 -37 -52 -20 -21 -21 -33 -21 -257 0 -269 6 -339 27 -339 11 0
13 5 7 18 -4 9 -9 136 -12 282 -3 228 -1 268 12 285 14 18 16 -5 17 -255 1
-151 5 -288 9 -305 4 -17 8 117 9 296 1 295 3 329 19 348 16 21 17 7 14 -323
-2 -232 1 -346 8 -346 7 0 10 95 10 278 l0 277 238 3 237 3 43 47 c61 67 52
87 -11 24 l-53 -52 -227 0 -227 0 0 53 c0 33 7 67 20 92 17 34 20 59 20 186
l0 147 52 46 53 46 108 0 c87 0 115 -4 146 -19 49 -26 107 -91 137 -155 l24
-51 0 36 c0 53 -73 149 -142 189 -49 27 -60 30 -150 30 -114 0 -133 -6 -194
-62 -43 -40 -46 -41 -57 -23 -22 40 -112 127 -146 141 -49 21 -75 26 -84 18z"/>
<path d="M907 1244 c-4 -4 -7 -76 -7 -161 0 -114 3 -155 13 -158 29 -9 237
-10 234 0 -2 6 -45 10 -103 10 -54 1 -105 2 -111 3 -10 1 -13 30 -13 102 l0
100 40 0 c37 0 39 2 45 34 12 60 5 71 -45 74 -25 2 -49 0 -53 -4z m81 -46 c-3
-29 -7 -33 -35 -36 -32 -3 -33 -2 -33 32 0 35 1 36 36 36 34 0 35 -1 32 -32z"/>
<path d="M591 1206 c-9 -11 -10 -48 -5 -134 l7 -119 -44 -42 c-24 -24 -53 -57
-66 -74 -24 -32 -31 -67 -13 -67 6 0 10 7 10 15 0 8 31 49 70 90 67 73 69 77
72 132 3 56 4 58 33 63 29 5 30 7 33 69 2 45 -1 67 -10 72 -21 14 -75 10 -87
-5z m64 -46 c0 -16 -6 -26 -18 -28 -19 -4 -32 20 -23 44 9 25 41 13 41 -16z"/>
<path d="M112 1184 c-38 -26 -22 -74 24 -74 45 0 58 50 19 76 -18 12 -24 11
-43 -2z"/>
<path d="M3285 1159 c-49 -45 -54 -56 -28 -66 12 -5 28 6 54 35 34 39 40 42
89 42 46 0 60 -5 116 -46 l64 -45 0 -97 c0 -82 -4 -105 -22 -142 -27 -51 -52
-70 -69 -53 -10 10 -7 14 12 22 33 12 53 37 45 56 -9 24 -40 17 -81 -18 -42
-36 -41 -50 8 -95 l25 -24 58 59 57 58 -2 119 c-1 66 -5 126 -9 133 -4 7 -38
33 -75 58 -63 42 -72 45 -132 45 -63 0 -67 -2 -110 -41z"/>
<path d="M10 1175 c-17 -21 -8 -50 17 -53 26 -4 41 31 23 53 -16 19 -24 19
-40 0z"/>
<path d="M4256 1138 c-9 -12 -16 -29 -16 -38 0 -8 10 0 21 18 24 37 20 55 -5
20z"/>
<path d="M5106 1134 c-9 -24 -7 -62 4 -69 6 -4 10 12 10 39 0 48 -4 56 -14 30z"/>
<path d="M2805 1120 c-3 -5 -43 -10 -89 -10 -120 0 -118 4 -119 -215 0 -176 0
-176 -24 -192 -22 -14 -23 -17 -8 -26 12 -6 22 -4 36 9 17 16 19 32 19 194 0
123 4 180 12 188 7 7 42 12 88 12 63 0 80 3 94 19 10 11 13 21 7 25 -5 4 -12
2 -16 -4z"/>
<path d="M1251 1106 c-8 -9 -9 -45 -4 -117 6 -96 9 -106 34 -131 27 -27 30
-28 144 -28 89 0 116 3 113 13 -3 8 -38 13 -115 15 -131 3 -144 11 -151 95 -4
52 -4 52 29 62 29 9 34 15 37 45 3 24 -2 38 -14 47 -23 17 -59 17 -73 -1z m67
-42 c2 -22 -2 -33 -14 -38 -22 -8 -44 11 -44 39 0 28 9 37 35 33 14 -2 21 -12
23 -34z"/>
<path d="M3362 1094 c-29 -20 -52 -66 -52 -105 0 -22 10 -41 34 -65 62 -62
152 -39 177 45 28 93 -82 179 -159 125z m97 -24 c10 -5 24 -23 31 -40 33 -79
-64 -147 -127 -88 -65 61 16 171 96 128z"/>
<path d="M4745 1102 c-6 -4 -28 -28 -49 -55 -28 -34 -40 -60 -44 -92 l-5 -45
99 -100 98 -100 76 0 c70 0 78 2 102 28 42 44 68 95 68 132 0 49 -40 128 -86
171 -69 64 -81 69 -169 69 -44 0 -85 -4 -90 -8z m217 -57 c50 -38 98 -120 98
-168 0 -26 -49 -112 -74 -129 -6 -4 -41 -8 -77 -8 l-65 0 -82 84 c-78 79 -82
86 -82 128 0 36 6 52 36 86 l36 42 82 0 c79 0 85 -2 128 -35z"/>
<path d="M4731 994 c-43 -54 -22 -95 88 -173 43 -30 95 -40 135 -25 25 10 59
72 52 97 -3 12 -28 46 -55 75 l-49 52 -75 0 c-70 0 -77 -2 -96 -26z m203 -48
c25 -29 46 -62 46 -73 0 -54 -101 -87 -108 -35 -3 20 -8 22 -31 17 -21 -4 -35
2 -69 30 -48 41 -50 52 -21 89 18 23 28 26 79 26 58 0 59 0 104 -54z"/>
<path d="M4826 963 c-12 -12 -6 -33 9 -33 8 0 15 6 15 14 0 17 -14 28 -24 19z"/>
<path d="M994 1065 c-7 -29 10 -55 36 -55 26 0 43 26 36 55 -5 20 -13 25 -36
25 -23 0 -31 -5 -36 -25z"/>
<path d="M2867 1070 c-37 -30 -38 -99 -2 -135 22 -23 31 -25 123 -25 104 0
132 11 118 46 -5 13 -19 15 -84 12 -42 -3 -84 -8 -93 -12 -9 -4 -25 1 -40 13
-20 16 -22 23 -13 47 l10 29 108 -4 108 -3 -4 23 c-3 23 -6 24 -104 27 -89 2
-103 0 -127 -18z"/>
<path d="M4024 1065 c-7 -17 4 -37 17 -30 12 8 12 45 -1 45 -6 0 -13 -7 -16
-15z"/>
<path d="M727 1053 c-4 -3 -7 -14 -7 -24 0 -9 -7 -20 -16 -23 -10 -4 -14 -16
-12 -38 3 -28 7 -34 32 -36 15 -2 39 -1 52 2 30 8 32 45 4 71 -11 10 -20 26
-20 37 0 18 -20 25 -33 11z"/>
<path d="M640 990 c0 -33 4 -60 10 -60 6 0 10 27 10 60 0 33 -4 60 -10 60 -6
0 -10 -27 -10 -60z"/>
<path d="M1342 1008 c-19 -19 -14 -73 9 -94 17 -16 40 -20 135 -23 l115 -3 -3
-52 -3 -51 -165 -2 c-91 -1 -165 -5 -165 -10 0 -4 80 -9 178 -11 l177 -2 11
27 c6 16 9 59 6 97 -4 65 -7 72 -41 103 -36 33 -36 33 -139 33 -67 0 -107 -4
-115 -12z m148 -53 c0 -35 0 -35 -46 -35 -58 0 -84 14 -84 45 0 24 3 25 65 25
l65 0 0 -35z m50 0 c0 -24 -5 -35 -15 -35 -10 0 -15 11 -15 35 0 24 5 35 15
35 10 0 15 -11 15 -35z m48 13 c18 -18 14 -38 -8 -38 -15 0 -20 7 -20 25 0 27
9 32 28 13z"/>
<path d="M455 949 l-45 -42 0 -156 0 -156 54 -57 54 -58 175 0 174 0 44 34
c24 19 61 55 82 80 l38 46 175 0 c102 0 183 4 195 10 21 12 25 50 7 68 -15 15
-320 17 -349 2 -10 -6 -19 -19 -19 -30 0 -11 -35 -54 -82 -99 l-83 -80 -176
-1 -177 0 -46 56 -46 56 4 136 3 136 42 37 c40 35 52 59 31 59 -6 0 -31 -19
-55 -41z"/>
<path d="M1840 964 c0 -17 22 -14 28 4 2 7 -3 12 -12 12 -9 0 -16 -7 -16 -16z"/>
<path d="M2691 966 c-17 -20 -3 -46 25 -46 28 0 49 31 32 48 -16 16 -43 15
-57 -2z"/>
<path d="M4094 956 c-9 -37 2 -56 31 -56 20 0 26 -4 23 -17 -2 -14 -13 -18
-43 -18 l-40 0 -5 49 c-3 27 -11 51 -17 54 -10 3 -13 -35 -13 -165 l0 -169 51
-42 c29 -23 60 -42 70 -42 30 0 52 44 45 89 -4 29 -2 40 9 45 19 7 19 26 0 26
-12 0 -15 24 -17 133 l-3 132 -42 3 c-38 3 -43 1 -49 -22z m14 -190 c-3 -44
-6 -51 -25 -54 -22 -3 -23 0 -23 56 0 58 0 59 25 54 24 -4 26 -8 23 -56z m52
2 c0 -51 -2 -58 -20 -58 -18 0 -20 7 -20 58 0 51 2 58 20 58 18 0 20 -7 20
-58z m-60 -78 c0 -5 -9 -10 -20 -10 -11 0 -20 5 -20 10 0 6 9 10 20 10 11 0
20 -4 20 -10z m53 -7 c-7 -2 -19 -2 -25 0 -7 3 -2 5 12 5 14 0 19 -2 13 -5z"/>
<path d="M2540 844 c0 -96 3 -125 13 -122 8 3 13 40 15 126 2 104 0 122 -13
122 -13 0 -15 -20 -15 -126z"/>
<path d="M4242 958 c-15 -15 -17 -238 -2 -238 6 0 10 43 10 110 0 110 0 110
24 110 14 0 28 -5 31 -11 7 -10 34 16 35 34 0 12 -85 8 -98 -5z"/>
<path d="M2330 903 c-37 -47 -4 -113 56 -113 35 0 74 37 74 70 0 10 -9 29 -21
44 -29 36 -80 36 -109 -1z m94 -25 c15 -24 -3 -52 -37 -56 -33 -4 -53 28 -37
59 14 25 58 23 74 -3z"/>
<path d="M17 909 c-9 -5 -17 -19 -17 -31 0 -20 1 -20 18 -5 49 45 142 -5 142
-77 0 -53 -39 -80 -108 -73 l-52 6 0 -41 0 -41 76 5 c82 6 113 21 150 76 21
30 41 118 30 129 -3 3 -20 -4 -39 -16 -44 -27 -43 -27 -50 9 -11 53 -100 88
-150 59z"/>
<path d="M3173 913 c-25 -9 -12 -33 56 -104 72 -75 96 -84 112 -41 5 13 5 21
1 18 -4 -2 -36 27 -71 65 -61 67 -72 73 -98 62z"/>
<path d="M2746 860 c-20 -22 -36 -47 -36 -54 0 -17 38 -46 60 -46 12 0 14 -10
12 -49 -4 -57 6 -80 70 -150 l46 -51 66 0 c63 0 66 1 66 24 0 30 -16 36 -90
36 -55 0 -60 2 -94 40 l-36 40 0 125 c0 143 -5 150 -64 85z m34 -61 c-9 -16
-15 -17 -31 -9 -20 11 -18 21 10 53 14 17 15 17 23 -3 4 -12 3 -30 -2 -41z"/>
<path d="M562 840 c-37 -23 -72 -75 -72 -108 0 -38 31 -93 64 -113 46 -28 90
-24 128 10 l33 29 35 -28 c49 -39 86 -47 110 -25 21 19 27 70 9 80 -17 11 -24
-5 -11 -26 10 -16 10 -24 1 -35 -20 -24 -61 -16 -95 17 -30 29 -32 35 -27 80
7 56 -10 89 -60 119 -41 25 -73 25 -115 0z m107 -25 c30 -15 58 -66 46 -85 -4
-7 -19 0 -41 20 -38 33 -74 38 -98 14 -28 -28 -15 -94 18 -94 6 0 5 5 -2 12
-17 17 -15 53 3 68 13 11 21 10 43 -7 15 -11 34 -32 42 -47 14 -26 14 -28 -9
-47 -52 -43 -136 -2 -148 73 -5 33 -2 41 30 73 39 39 70 44 116 20z"/>
<path d="M2229 840 l-24 -21 30 14 c17 8 37 17 45 20 10 4 8 6 -6 6 -12 1 -32
-8 -45 -19z"/>
<path d="M2037 843 c-12 -11 -8 -21 13 -26 20 -5 45 15 33 26 -8 9 -38 9 -46
0z"/>
<path d="M2929 824 c-17 -21 0 -48 34 -52 18 -2 29 3 37 19 10 17 14 19 21 8
17 -27 10 -49 -16 -49 -14 0 -25 -4 -25 -10 0 -6 31 -10 73 -10 59 0 77 4 90
18 19 21 21 45 7 73 -13 23 -40 26 -40 4 0 -8 7 -15 15 -15 18 0 20 -31 3 -48
-7 -7 -29 -12 -50 -12 l-38 0 0 45 c0 45 -7 54 -27 34 -8 -8 -13 -8 -17 0 -10
16 -52 13 -67 -5z"/>
<path d="M3637 812 c-22 -25 -21 -45 3 -67 17 -15 24 -16 45 -7 44 20 27 92
-23 92 -5 0 -16 -8 -25 -18z"/>
<path d="M2013 768 c2 -9 24 -13 62 -13 38 0 60 4 63 13 3 9 -14 12 -63 12
-49 0 -66 -3 -62 -12z"/>
<path d="M5079 743 c-20 -21 -46 -53 -59 -72 -13 -19 -26 -29 -28 -23 -5 15
-118 16 -127 2 -4 -6 16 -10 52 -10 32 0 67 -3 78 -6 16 -4 32 9 73 61 59 73
67 107 11 48z"/>
<path d="M984 729 c-10 -17 13 -36 27 -22 12 12 4 33 -11 33 -5 0 -12 -5 -16
-11z"/>
<path d="M1674 681 c-113 -69 -12 -257 105 -197 69 36 80 136 21 189 -36 32
-81 35 -126 8z m91 -21 c3 -5 0 -7 -9 -4 -23 9 -75 -24 -82 -52 -8 -33 10 -72
38 -84 16 -6 18 -9 6 -9 -9 -1 -28 13 -43 31 -27 32 -28 65 -2 97 22 26 80 40
92 21z m19 -42 c9 -12 16 -31 16 -42 0 -23 -27 -56 -46 -56 -8 0 -3 10 11 25
37 36 31 65 -15 84 -24 9 -24 10 -3 10 12 1 29 -9 37 -21z m-34 -33 c0 -8 -4
-15 -9 -15 -13 0 -22 16 -14 24 11 11 23 6 23 -9z"/>
<path d="M4702 683 c2 -10 10 -18 18 -18 22 0 18 29 -3 33 -14 3 -18 -1 -15
-15z"/>
<path d="M3642 668 c2 -13 10 -23 18 -23 8 0 16 10 18 23 3 17 -2 22 -18 22
-16 0 -21 -5 -18 -22z"/>
<path d="M2962 648 c3 -22 8 -23 102 -26 55 -1 106 -8 113 -14 9 -7 13 -43 13
-128 0 -101 3 -119 18 -133 24 -22 54 -21 83 2 20 16 24 30 27 95 2 41 9 80
16 85 8 7 10 -16 6 -91 -6 -114 -15 -128 -84 -128 -46 0 -72 -12 -62 -29 10
-16 82 -14 116 4 44 23 62 65 60 143 -3 124 -13 112 95 112 123 0 126 -4 131
-167 2 -64 6 -118 9 -121 3 -3 5 42 5 101 0 58 2 111 5 119 3 7 -5 29 -17 48
-12 19 -21 44 -19 56 4 35 -20 45 -80 35 l-54 -9 58 -1 c42 -1 57 -5 57 -15 0
-11 -24 -15 -110 -18 -136 -4 -146 -11 -156 -113 -7 -77 -16 -95 -46 -95 -19
0 -20 6 -17 143 2 78 0 148 -4 155 -6 8 -45 12 -138 12 -129 0 -130 0 -127
-22z"/>
<path d="M4590 620 c0 -6 32 -10 75 -10 43 0 75 4 75 10 0 6 -32 10 -75 10
-43 0 -75 -4 -75 -10z"/>
<path d="M1246 613 l-199 -3 -79 -80 -79 -80 -139 0 c-87 0 -140 -4 -140 -10
0 -6 54 -10 143 -10 l142 1 83 79 83 79 221 1 c211 0 223 -1 244 -21 14 -13
24 -17 29 -10 11 19 -45 61 -79 59 -17 -2 -121 -4 -230 -5z"/>
<path d="M174 596 c-3 -8 -4 -79 -2 -159 l3 -144 -60 65 c-67 73 -74 95 -32
100 22 3 27 7 22 22 -3 10 -1 21 5 25 16 10 12 62 -6 80 -24 24 -66 15 -84
-18 -14 -26 -14 -29 4 -43 24 -17 45 -19 28 -2 -29 29 3 73 34 47 18 -15 18
-38 -1 -45 -8 -4 -15 -12 -15 -20 0 -7 -9 -18 -20 -24 -41 -22 -17 -69 102
-192 26 -27 27 -32 29 -158 2 -112 5 -130 18 -128 32 6 40 67 40 326 1 162 -3
252 -9 252 -6 0 -10 -91 -11 -252 0 -139 -4 -262 -9 -273 -8 -19 -17 375 -12
492 3 49 -12 80 -24 49z"/>
<path d="M2542 603 c-8 -3 -34 -32 -58 -65 l-44 -60 0 -123 c0 -114 -1 -123
-20 -128 -24 -6 -26 -35 -4 -44 34 -13 44 24 44 152 0 119 1 123 29 162 52 72
74 83 165 83 l81 0 72 -75 73 -75 0 -140 c0 -118 2 -140 15 -140 13 0 15 22
15 140 l0 139 -64 74 c-90 103 -98 107 -203 106 -48 0 -94 -3 -101 -6z"/>
<path d="M1190 576 c0 -2 16 -23 36 -47 19 -23 44 -59 54 -80 11 -20 33 -48
50 -63 l32 -26 197 0 c204 0 291 6 291 21 0 5 -112 9 -248 9 l-248 0 -26 28
c-14 15 -31 38 -38 52 -26 50 -100 128 -100 106z"/>
<path d="M550 551 c0 -6 48 -11 110 -13 70 -2 109 1 107 7 -5 13 -217 19 -217
6z"/>
<path d="M2386 534 c-25 -26 -26 -30 -26 -148 l0 -122 -64 -63 c-58 -57 -66
-62 -86 -51 -13 7 -36 9 -56 5 -48 -8 -71 1 -90 36 -46 90 69 173 140 102 22
-21 27 -35 24 -60 -3 -20 0 -32 6 -30 18 6 18 54 1 87 -34 66 -125 77 -179 21
-58 -61 -39 -161 39 -198 28 -14 39 -14 61 -4 19 8 30 9 38 1 21 -21 45 -8
119 69 l77 79 0 115 c0 108 2 117 25 145 22 26 24 42 5 42 -4 0 -19 -12 -34
-26z"/>
<path d="M2617 530 c-75 -14 -153 -128 -99 -147 9 -3 26 -14 38 -25 11 -10 34
-22 51 -27 87 -25 159 90 102 163 -28 36 -48 44 -92 36z m57 -41 c54 -43 21
-139 -49 -139 -44 0 -100 58 -91 95 7 28 59 65 92 65 12 0 33 -9 48 -21z"/>
<path d="M4833 508 c-17 -18 -37 -53 -43 -78 -9 -33 -26 -58 -66 -96 l-54 -52
0 -105 0 -106 44 -35 c42 -35 44 -36 135 -36 80 0 91 2 91 18 -1 22 -24 50
-82 96 -47 37 -48 40 -48 93 0 34 -4 52 -10 48 -5 -3 -10 -30 -10 -58 -1 -52
0 -52 72 -119 l73 -67 -78 -1 c-77 0 -78 0 -122 41 -42 39 -45 45 -45 93 0
101 9 125 64 175 28 25 71 66 96 91 30 31 59 49 90 57 59 16 57 16 63 -6 5
-22 -10 -31 -52 -31 -17 0 -36 -11 -54 -31 -31 -36 -32 -39 -12 -39 8 0 22 11
31 25 9 14 20 25 25 25 15 0 10 -54 -7 -78 -13 -19 -24 -22 -90 -22 -96 0
-109 -12 -119 -108 -5 -56 -3 -77 10 -105 23 -50 60 -73 92 -58 33 15 24 35
-18 39 -19 2 -40 10 -46 19 -17 22 -17 155 -1 171 7 7 41 12 84 12 68 0 74 2
98 31 17 20 26 43 26 65 0 27 4 34 19 34 11 0 24 12 32 31 11 27 10 33 -3 43
-8 6 -18 21 -22 34 -7 20 -14 22 -70 22 -57 0 -65 -3 -93 -32z m73 -38 c-16
-5 -39 -19 -52 -31 -26 -24 -45 -18 -28 9 12 18 45 30 84 30 24 0 23 0 -4 -8z"/>
<path d="M2016 509 c-52 -41 -19 -129 49 -129 31 0 65 40 65 77 0 34 -38 73
-70 73 -10 0 -29 -9 -44 -21z m65 -19 c28 -16 25 -58 -6 -72 -19 -8 -28 -8
-40 2 -18 15 -20 51 -3 68 15 15 24 15 49 2z"/>
<path d="M4673 522 c-62 -2 -83 -6 -83 -16 0 -20 176 -21 183 -2 8 19 -5 21
-100 18z"/>
<path d="M1513 493 c-11 -27 -11 -27 -18 -6 -7 21 -35 22 -35 2 0 -16 40 -49
60 -49 28 0 56 45 40 65 -19 22 -35 18 -47 -12z"/>
<path d="M1117 503 c-15 -14 -7 -34 11 -28 14 4 32 -8 65 -44 l47 -50 0 -157
c0 -134 -2 -155 -14 -145 -9 8 -17 42 -21 89 -10 117 -14 131 -56 172 -31 30
-36 39 -23 44 25 10 14 60 -14 64 -24 4 -52 -13 -52 -30 0 -6 22 -31 48 -57
66 -62 72 -78 79 -183 5 -76 10 -95 30 -119 14 -16 29 -29 35 -29 7 0 8 58 3
182 l-7 183 -50 57 c-47 55 -66 67 -81 51z"/>
<path d="M3405 490 c-3 -6 -5 -76 -4 -156 1 -101 -2 -148 -10 -153 -8 -5 -8
-11 2 -24 10 -14 15 -14 30 -2 14 10 16 18 9 32 -6 10 -11 77 -11 149 -2 143
-2 144 58 144 58 0 60 -8 63 -205 l3 -180 62 -5 c64 -5 105 -30 119 -72 7 -24
34 -24 27 1 -2 10 -18 35 -34 54 -28 33 -34 36 -92 39 l-62 3 -3 174 c-3 208
-4 211 -93 211 -32 0 -61 -5 -64 -10z"/>
<path d="M2970 455 c0 -12 12 -14 54 -12 46 2 59 -2 80 -22 14 -14 26 -20 26
-14 0 6 -14 23 -31 37 -24 20 -41 26 -80 26 -37 0 -49 -4 -49 -15z"/>
<path d="M3821 460 c-19 -11 -9 -45 14 -45 13 0 21 8 23 21 3 23 -17 37 -37
24z"/>
<path d="M3945 450 c3 -5 22 -10 41 -10 19 0 34 5 34 10 0 6 -18 10 -41 10
-24 0 -38 -4 -34 -10z"/>
<path d="M4600 450 c0 -6 35 -10 85 -10 50 0 85 4 85 10 0 6 -35 10 -85 10
-50 0 -85 -4 -85 -10z"/>
<path d="M2298 420 c-7 -41 -5 -45 18 -36 11 4 13 10 6 19 -5 6 -12 21 -14 32
-3 14 -6 9 -10 -15z"/>
<path d="M512 428 c5 -15 58 -24 58 -10 0 11 -24 22 -47 22 -8 0 -13 -6 -11
-12z"/>
<path d="M3474 425 c-3 -8 1 -24 10 -36 18 -26 6 -49 -26 -49 -16 0 -18 -3 -9
-14 11 -13 50 -11 52 3 0 3 3 30 5 59 2 41 0 52 -12 52 -8 0 -17 -7 -20 -15z"/>
<path d="M2970 404 c0 -12 8 -14 43 -9 37 6 48 3 72 -17 23 -21 29 -34 33 -84
2 -32 9 -65 14 -71 7 -8 36 -13 79 -13 57 0 69 3 69 16 0 14 -9 16 -51 12 -83
-8 -86 -6 -91 69 -4 57 -8 69 -32 89 -21 19 -39 24 -82 24 -42 0 -54 -3 -54
-16z"/>
<path d="M4186 314 c-52 -47 -98 -93 -101 -102 -4 -10 -9 -61 -12 -115 -5 -86
-4 -97 11 -97 14 0 16 14 16 97 l0 98 102 96 c64 60 98 98 91 102 -7 5 -51
-28 -107 -79z"/>
<path d="M0 377 c0 -7 18 -31 40 -52 38 -37 40 -42 40 -101 0 -60 -1 -64 -40
-97 -38 -32 -51 -57 -30 -57 5 0 30 19 55 43 42 41 45 47 45 95 0 28 -5 63
-11 79 -18 48 -99 122 -99 90z"/>
<path d="M420 361 c0 -53 37 -62 59 -15 15 34 15 34 -24 34 -28 0 -35 -4 -35
-19z"/>
<path d="M2480 365 c0 -3 16 -21 35 -39 21 -20 35 -43 35 -57 1 -22 2 -22 11
-6 8 13 7 24 -5 42 -16 24 -76 72 -76 60z"/>
<path d="M1780 340 c-40 -40 -34 -104 14 -135 51 -34 126 12 126 77 0 65 -94
104 -140 58z m88 -16 c31 -21 30 -69 -3 -90 -44 -29 -92 8 -79 61 11 43 45 55
82 29z"/>
<path d="M3010 333 c-20 -7 -40 -33 -40 -53 0 -23 37 -60 60 -60 26 0 60 34
60 60 0 23 -34 60 -52 59 -7 0 -20 -3 -28 -6z"/>
<path d="M5059 311 c-62 -39 -92 -83 -93 -136 -1 -33 5 -50 23 -69 14 -14 31
-26 39 -26 11 0 12 -9 7 -41 -5 -29 -4 -40 4 -35 7 4 11 40 11 89 0 89 15 127
51 127 10 0 19 5 19 10 0 17 -46 11 -63 -8 -11 -12 -17 -36 -17 -65 0 -51 -10
-59 -34 -25 -34 49 -5 117 65 156 27 15 49 33 49 40 0 18 -10 15 -61 -17z"/>
<path d="M4618 193 c-6 -155 4 -192 50 -193 8 0 5 8 -8 22 -18 20 -20 35 -20
165 0 79 -4 143 -9 143 -4 0 -11 -62 -13 -137z"/>
<path d="M632 246 l-72 -74 0 -86 c0 -51 4 -86 10 -86 6 0 10 33 10 80 l0 80
70 70 70 70 120 0 c137 0 120 8 239 -122 33 -37 61 -61 61 -54 0 14 -97 128
-146 174 -23 20 -34 22 -158 22 l-133 0 -71 -74z"/>
<path d="M475 290 c-14 -16 -26 -19 -50 -14 -42 8 -89 -16 -103 -53 -24 -61
-18 -96 22 -141 31 -34 39 -37 85 -36 44 0 51 -2 51 -19 0 -12 -5 -17 -13 -14
-8 3 -20 1 -28 -4 -9 -6 0 -9 29 -9 51 0 63 19 39 60 -15 25 -15 31 -2 56 25
49 13 105 -29 137 -7 5 -3 13 12 24 22 15 29 33 14 33 -5 0 -17 -9 -27 -20z
m-45 -40 c0 -5 -10 -10 -23 -10 -67 0 -94 -87 -40 -130 20 -16 37 -20 60 -17
39 7 56 -19 19 -29 -56 -14 -126 47 -126 110 0 37 46 86 81 86 16 0 29 -4 29
-10z m56 -31 c4 -8 1 -8 -14 0 -12 6 -24 16 -28 22 -4 8 -1 8 14 0 12 -6 24
-16 28 -22z m-59 -53 c-4 -9 -11 -16 -17 -16 -17 0 -24 31 -9 41 18 11 34 -5
26 -25z m73 -19 c0 -7 -7 -22 -15 -33 -13 -17 -13 -16 -3 14 13 34 18 40 18
19z"/>
<path d="M612 287 c-31 -33 -27 -42 8 -17 17 12 30 26 30 31 0 16 -16 10 -38
-14z"/>
<path d="M3845 292 c2 -3 0 -11 -6 -19 -8 -9 -37 -13 -95 -13 -68 0 -84 -3
-84 -15 0 -11 12 -15 46 -15 41 0 45 -2 39 -20 -4 -13 0 -31 9 -45 18 -27 55
-33 100 -15 32 12 34 -2 3 -27 -36 -28 -45 -50 -11 -26 52 37 114 111 114 136
0 41 -23 60 -74 62 -26 1 -44 0 -41 -3z m-1 -91 c15 -27 14 -29 -7 -35 -39
-10 -56 -7 -67 15 -17 30 -5 49 29 49 23 0 34 -7 45 -29z"/>
<path d="M2640 270 c-24 -24 -25 -38 -4 -68 30 -43 104 -20 104 32 0 50 -63
73 -100 36z"/>
<path d="M1355 262 c-47 -29 -52 -41 -59 -149 -8 -116 -4 -121 51 -73 l34 30
197 0 198 0 34 -35 c24 -24 43 -35 63 -35 l30 0 -31 23 c-17 12 -46 34 -64 48
-33 26 -36 27 -230 32 l-198 5 -35 -40 -36 -39 7 93 c5 82 9 96 31 116 31 28
70 28 100 0 28 -26 31 -6 3 22 -25 25 -56 25 -95 2z"/>
<path d="M2 212 c0 -51 1 -52 19 -36 24 22 24 36 0 65 l-19 23 0 -52z"/>
<path d="M722 212 c-60 -59 -79 -93 -88 -160 -6 -44 -4 -52 10 -52 12 0 16 9
16 35 0 51 25 104 73 153 l41 42 86 0 87 0 61 -64 c59 -62 62 -66 62 -115 0
-39 4 -51 15 -51 11 0 15 12 15 49 0 42 -6 56 -38 98 -21 26 -55 63 -76 81
-36 31 -40 32 -126 32 l-89 0 -49 -48z"/>
<path d="M2520 204 c-16 -29 -8 -48 30 -73 22 -15 23 -15 18 0 -3 9 -2 22 2
29 8 14 -17 70 -30 70 -4 0 -13 -12 -20 -26z m30 -24 c0 -11 -4 -20 -10 -20
-5 0 -10 9 -10 20 0 11 5 20 10 20 6 0 10 -9 10 -20z"/>
<path d="M1424 196 c-3 -8 -4 -23 -2 -33 3 -15 17 -19 103 -24 55 -3 152 -4
216 -1 l115 5 38 -46 c34 -42 113 -97 138 -97 17 0 -11 28 -55 54 -23 14 -53
41 -67 60 -30 43 -48 50 -126 47 -55 -2 -62 0 -78 23 -16 26 -18 26 -147 26
-104 0 -131 -3 -135 -14z"/>
<path d="M3088 132 c-50 -50 -58 -64 -58 -95 0 -21 5 -37 10 -37 6 0 10 15 10
32 0 26 12 44 62 95 34 35 56 63 49 63 -8 0 -40 -26 -73 -58z"/>
<path d="M3263 183 c-35 -2 -63 -8 -63 -13 0 -12 119 -17 131 -5 11 11 12 26
2 23 -5 -1 -36 -3 -70 -5z"/>
<path d="M752 145 c-35 -29 -62 -82 -62 -120 0 -31 23 -30 28 1 7 48 13 62 36
87 22 24 32 27 91 27 37 0 76 -5 88 -11 38 -20 76 -61 88 -96 12 -37 35 -46
25 -10 -3 12 -6 27 -6 34 0 20 -51 73 -91 93 -26 14 -58 20 -103 20 -54 0 -69
-4 -94 -25z"/>
<path d="M5072 93 c3 -72 5 -78 26 -81 21 -3 22 -1 22 77 0 80 0 81 -25 81
-26 0 -26 0 -23 -77z"/>
<path d="M3250 113 c-34 -13 -60 -47 -60 -80 0 -42 18 -43 22 -1 4 44 48 76
83 60 21 -10 25 -18 25 -52 0 -25 5 -40 13 -40 16 0 10 85 -7 99 -16 13 -58
21 -76 14z"/>
<path d="M4297 103 c-11 -10 -8 -51 4 -59 6 -3 9 -15 6 -25 -4 -15 0 -19 24
-19 28 0 29 2 29 43 0 24 -5 48 -12 55 -13 13 -41 16 -51 5z"/>
<path d="M805 55 c-23 -22 -34 -55 -19 -55 3 0 19 14 34 30 16 17 38 30 52 30
29 0 68 -26 68 -46 0 -8 7 -14 15 -14 22 0 19 14 -11 49 -22 26 -33 31 -70 31
-34 0 -51 -6 -69 -25z"/>
<path d="M2409 55 c-26 -14 -45 -43 -34 -53 3 -3 15 4 28 16 22 21 32 22 202
22 150 0 181 -3 196 -16 26 -24 71 -11 67 19 -3 22 -4 22 -218 24 -171 2 -220
-1 -241 -12z"/>
<path d="M2170 50 c0 -5 25 -10 55 -10 30 0 55 5 55 10 0 6 -25 10 -55 10 -30
0 -55 -4 -55 -10z"/>
<path d="M1547 40 c-134 -4 -170 -8 -177 -20 -12 -19 6 -26 25 -10 11 9 72 13
209 14 154 1 192 4 184 14 -6 6 -25 11 -42 10 -17 -1 -107 -5 -199 -8z"/>
<path d="M3270 20 c0 -11 5 -20 10 -20 6 0 10 9 10 20 0 11 -4 20 -10 20 -5 0
-10 -9 -10 -20z"/>
<path d="M3585 20 l-40 -19 60 6 c67 6 76 10 55 23 -21 13 -29 12 -75 -10z"/>
<path d="M3797 20 c-3 -11 -1 -20 4 -20 5 0 9 9 9 20 0 11 -2 20 -4 20 -2 0
-6 -9 -9 -20z"/>
<path d="M3375 10 c3 -5 8 -10 11 -10 2 0 4 5 4 10 0 6 -5 10 -11 10 -5 0 -7
-4 -4 -10z"/>
</g>
</svg>